<?xml version="1.0" encoding="UTF-8"?>
<svg width="261px" height="34px" viewBox="0 0 261 34" version="1.1" xmlns="http://www.w3.org/2000/svg" xmlns:xlink="http://www.w3.org/1999/xlink">
    <!-- Generator: sketchtool 46.1 (44463) - http://www.bohemiancoding.com/sketch -->
    <title>10B060DE-7B1E-4C30-8572-3BDD136C9EA1</title>
    <desc>Created with sketchtool.</desc>
    <defs></defs>
    <g id="Symbols" stroke="none" stroke-width="1" fill="none" fill-rule="evenodd">
        <g id="ui/header-desktop-hd-final" transform="translate(-590.000000, -24.000000)">
            <g id="Group">
                <g transform="translate(560.000000, 24.000000)">
                    <g id="ah-logo-red" transform="translate(30.000000, 0.000000)">
                        <path d="M202.445574,21.5073813 C201.011,17.4217477 199.570036,13.3381874 198.162759,9.2424833 C197.653689,7.76153737 197.237836,6.24771443 196.762742,4.75403236 C196.416296,3.66464853 196.106439,3.51625775 194.949777,3.60570689 C194.18864,3.66435235 193.4185,3.60985354 192.652425,3.59356313 C192.110539,3.58201175 191.566621,3.50796446 191.027639,3.53876813 C190.571711,3.56483278 190.251691,3.80208032 190.414605,4.42378142 C190.58536,4.49812491 190.780799,4.63674145 190.991049,4.66606418 C192.061171,4.8159359 192.330372,5.34522598 192.302784,6.41091467 C192.267065,7.79559912 192.277229,9.18916925 192.118961,10.5608214 C191.743184,13.8126825 191.286676,17.0550655 190.848172,20.2992256 C190.631534,21.8980549 190.368141,23.4903679 190.152665,25.0897895 C190.0185,26.0867623 189.533823,26.7955431 188.658849,27.2567096 C188.317048,27.4370889 187.862282,27.5780749 188.039717,28.298407 C188.322275,28.331284 188.656235,28.4020732 188.990195,28.4035542 C190.43987,28.4106627 191.889836,28.3928914 193.339511,28.3934837 C193.883139,28.3934837 194.428219,28.4503521 194.969234,28.4225103 C195.47511,28.3958532 195.831431,28.171638 195.687392,27.4986962 C195.412094,27.4430126 195.153638,27.3831824 194.892278,27.3396426 C193.283173,27.070999 192.518551,26.216197 192.460181,24.5359158 C192.433173,23.7524954 192.454373,22.9625588 192.520003,22.1815079 C192.725606,19.7447595 192.954731,17.3100844 193.191117,14.8760016 C193.320054,13.5446312 193.478903,12.2159265 193.631072,10.8869257 C193.692056,10.3549699 193.70919,9.80109611 194.269661,9.21404914 C194.531892,9.71875551 194.785411,10.0806987 194.918995,10.4841084 C196.600409,15.5545711 198.266722,20.6306613 199.930713,25.7070478 C200.189168,26.4955034 200.3939,27.302619 200.665714,28.085447 C200.912554,28.7960048 201.349025,28.8810111 201.882489,28.3508325 C202.204833,28.0300596 202.456319,27.609471 202.824255,27.3671882 C203.571163,26.8749218 203.88131,26.1294136 204.142089,25.3374037 C204.271317,24.9440645 204.332301,24.5270301 204.463271,24.1345794 C205.980609,19.5880754 207.503175,15.0427561 209.034162,10.500695 C209.129413,10.2184267 209.305105,9.96429635 209.450886,9.68321281 C210.160913,9.99746954 210.147555,10.5566747 210.201859,11.1161761 C210.429242,13.4569592 210.687698,15.7947805 210.924374,18.1346751 C211.133461,20.201187 211.349519,22.2671066 211.523178,24.3365804 C211.645146,25.788796 211.116909,26.8612971 209.661425,27.3162437 C209.450014,27.3822939 209.210144,27.4652268 209.0693,27.6210223 C208.941234,27.7617122 208.930199,28.0128806 208.827398,28.3475744 C209.282163,28.3771933 209.62832,28.4308036 209.971572,28.4171789 C211.507496,28.3570525 213.042549,28.215474 214.577602,28.2225826 C216.158247,28.2296911 217.73715,28.4228065 219.318667,28.4512406 C222.621673,28.511367 225.925841,28.5024814 229.229428,28.5492792 C231.176267,28.5768248 233.122236,28.6582769 235.068785,28.7136642 C235.943178,28.7385441 236.774012,28.6150332 237.532245,28.1055878 C238.32736,27.5718549 239.123345,27.6103595 239.952436,28.1209897 C240.897687,28.7032976 241.953,28.8827883 243.061746,28.9686831 C245.412241,29.1508395 247.524608,28.5267689 249.56757,27.3985843 C251.000692,26.6065744 252.164905,25.5681351 253.041621,24.1796002 C254.703579,21.5452935 254.317928,17.5517747 250.98414,15.7011847 C249.803084,15.0454218 248.503836,14.5999533 247.23537,14.1233849 C245.750847,13.5656607 244.194304,13.1862423 242.754212,12.5340337 C240.936891,11.710924 240.379614,10.339568 240.678435,8.47742663 C240.930212,6.91265916 241.932381,5.79513736 243.74796,5.38195344 C245.265879,5.03659685 246.725138,5.21756844 248.162035,5.69058257 C249.828639,6.23942114 250.971362,7.30807172 251.279767,9.16488173 C251.321294,9.41397684 251.622438,9.617755 251.803067,9.84285878 C252.027255,9.65211294 252.318526,9.50105646 252.456176,9.25906989 C252.579886,9.04107465 252.612411,8.70430755 252.552298,8.45343531 C252.252605,7.20322075 252.505834,5.97344325 252.609797,4.73537244 C252.642322,4.35239983 252.583661,3.96172629 252.559268,3.40400205 C250.810481,3.84680488 249.254519,3.61814683 247.698848,3.32432716 C244.01658,2.62857876 240.940376,3.88293997 238.55997,6.67422686 C236.353803,9.2617356 236.744391,12.7215215 239.429136,14.6899948 C240.36219,15.374488 241.499686,15.8054433 242.592169,16.218331 C244.242511,16.8421055 245.962548,17.2777997 247.600693,17.9291198 C248.70276,18.3671836 249.657884,19.095809 250.114973,20.3137389 C251.052674,22.8120947 249.637847,25.7964969 247.085814,26.4904682 C246.186446,26.7351205 245.205767,26.7931736 244.27068,26.7505223 C241.655921,26.6314543 238.677872,25.3960492 237.973072,22.0659941 C237.909184,21.7650659 237.626916,21.5121204 237.420732,21.198456 C236.628231,21.7825411 236.247807,22.4353421 235.956537,23.1764074 C235.431784,24.5110359 234.608501,25.6264844 233.241299,26.1021642 C232.310859,26.425899 231.303753,26.6791407 230.330914,26.6803255 C228.893145,26.6821026 227.45073,26.4715121 226.01935,26.2783968 C224.437833,26.0657329 224.055376,25.5568799 224.015301,23.9094756 C223.974355,22.201945 223.879975,20.4953029 223.868069,18.787476 C223.860809,17.7751014 223.918598,16.755322 224.039695,15.7500559 C224.1454,14.8742245 224.424765,14.6426046 225.291608,14.6162437 C226.5139,14.5792201 227.739677,14.5676687 228.961679,14.6123933 C230.556845,14.6707425 231.317692,15.3700452 231.686209,16.9653202 C231.759971,17.2849083 231.916786,17.5843556 232.036141,17.8941694 C232.948577,17.6471477 232.977907,17.0568426 232.981972,16.4345491 C232.990684,15.1875927 233.023209,13.9409324 233.028436,12.6939759 C233.029598,12.4297751 232.956998,12.1652782 232.899789,11.7743085 C232.544921,11.8539834 232.195861,11.8326577 231.988225,11.9967465 C231.259322,12.5719459 230.42994,12.7197444 229.556127,12.7179672 C228.107323,12.7153015 226.657938,12.7150053 225.210586,12.6658379 C224.294375,12.6347381 224.044922,12.4051914 224.030112,11.5166239 C224.001653,9.80731608 224.015301,8.09623115 224.062056,6.38751573 C224.085288,5.53300992 224.407922,5.18883809 225.239917,5.19594663 C227.185885,5.21282941 229.134467,5.25103782 231.076079,5.3775106 C233.212259,5.51701571 234.540257,6.76130648 235.207596,8.80027284 C235.286584,9.04196322 235.451822,9.25403468 235.575242,9.47676895 C236.581186,9.12015717 236.432211,8.32666633 236.205409,7.7194785 C235.753838,6.51339613 235.818887,5.26880917 235.703889,4.03458883 C235.67543,3.72625589 235.597893,3.42266197 235.521808,3 C235.111183,3.02724941 234.766479,3.03909697 234.424388,3.07552824 C233.259304,3.19963151 232.095673,3.43332478 230.929718,3.44457997 C226.852506,3.48308456 222.774714,3.44576473 218.696921,3.43984094 C218.471862,3.43954475 218.235476,3.42295816 218.023485,3.48308456 C217.594855,3.60452213 217.451107,3.89686086 217.672682,4.3832035 C217.797263,4.43503661 217.955241,4.52507812 218.124834,4.5668408 C219.718257,4.96047623 220.085322,5.36803255 220.242138,6.96952748 C220.273792,7.29059656 220.27292,7.61581229 220.273211,7.93925088 C220.27989,13.1616586 220.28715,18.3843625 220.284827,23.6073627 C220.284536,24.1606441 220.235169,24.714814 220.191899,25.2669107 C220.027242,27.3627454 218.033648,27.842868 216.554352,26.8210153 C215.979361,26.4238256 215.663697,25.8030131 215.574834,25.0708334 C215.336707,23.1017677 215.078251,21.1347753 214.828217,19.1671906 C214.467831,16.3299943 214.08944,13.4954638 213.754899,10.6553057 C213.598955,9.3301553 213.523161,7.99463826 213.422101,6.66297167 C213.345726,5.65800176 213.759255,4.97558188 214.720478,4.65569755 C215.09974,4.52952096 215.533888,4.43325947 215.493813,3.67886562 C215.163919,3.61725827 214.796563,3.49641308 214.426884,3.48900835 C213.205754,3.46353608 211.983752,3.4875274 210.76204,3.47567983 C209.702953,3.4656094 209.414005,3.69012081 209.130284,4.72263631 C208.80039,5.92131395 208.491986,7.12946964 208.091234,8.30385977 C206.618327,12.6157819 205.11667,16.9176337 203.604559,21.2153388 C203.495659,21.5254489 203.215133,21.7727668 202.893951,22.2152735 C202.634624,21.8115676 202.503654,21.6729511 202.445574,21.5073813" id="Fill-1" fill="#E13020"></path>
                        <path d="M168.86935,28.7084935 C167.7407,28.5428195 167.11199,27.9664608 166.903277,26.8166602 C166.814766,26.3289721 166.801347,25.8214498 166.802774,25.3229695 C166.814766,21.5909303 166.834181,17.8585994 166.860734,14.1265602 C166.877294,11.8082916 166.982079,9.48798114 166.911842,7.17292095 C166.86102,5.49401375 167.154817,4.10328589 168.748577,3.28191642 C169.086915,3.10778376 169.37643,2.79160318 169.139736,2.41329487 C169.02096,2.22399488 168.626661,2.13619935 168.357417,2.13707439 C166.933541,2.14144958 165.50938,2.22049472 164.085789,2.21145266 C162.886615,2.20386899 161.688298,2.105573 160.48941,2.05773756 C159.605448,2.02244434 159.496951,2.13853278 159.445272,3.16611966 C159.676256,3.24516481 159.916662,3.35075278 160.167632,3.40996372 C162.012075,3.8457329 162.542567,4.46526015 162.569976,6.41542929 C162.595959,8.28101137 162.570833,10.1477602 162.532003,12.0130506 C162.509161,13.1083071 162.220217,13.3894861 161.172082,13.3924029 C158.187282,13.4002783 155.202196,13.4101954 152.217966,13.3708186 C151.393106,13.3600265 150.527417,13.3976532 149.728824,12.885464 C149.702842,12.5249481 149.654589,12.1667657 149.65516,11.8088749 C149.658872,9.98850317 149.703413,8.16725637 149.678573,6.34746797 C149.658872,4.91386322 149.993499,3.74277003 151.43679,3.15882767 C151.831946,2.99869563 152.09348,2.68514017 151.79283,2.02973633 C151.471338,2.02973633 151.083034,2.00056838 150.701011,2.03469488 C148.390318,2.24120397 146.082194,2.33483309 143.772071,2.02361106 C143.465711,1.98219257 143.148786,2.00523525 142.837572,2.01806915 C142.402443,2.03615328 142.010142,2.17557608 142.000149,2.69505727 C141.991298,3.16291119 142.378174,3.23349763 142.740782,3.31662628 C144.561813,3.73431133 145.094303,4.31417017 145.21422,6.13541697 C145.312438,7.63114945 145.390385,9.13213215 145.386387,10.6301981 C145.381248,12.7670421 145.281031,14.9035944 145.242772,17.0401468 C145.197089,19.5888422 145.182528,22.1378294 145.13399,24.6859415 C145.122569,25.274259 145.037199,25.8617016 144.970103,26.447394 C144.853897,27.4644804 144.401066,28.2248889 143.45172,28.6778671 C143.090826,28.849958 142.812732,29.2028902 142.491525,29.477944 C142.913805,30.0814289 143.35236,29.9312139 143.795484,29.9312139 C146.10789,29.9315056 148.420011,29.9802161 150.732704,29.9983002 C151.172401,30.0018004 151.631799,30.0111341 152.045514,29.8883371 C152.277068,29.8195007 152.432675,29.4843609 152.62283,29.2693932 C152.434103,29.1078027 152.258224,28.925503 152.050938,28.7942472 C151.94958,28.7300778 151.78969,28.7668294 151.657495,28.7472868 C150.478022,28.5740292 149.676289,27.9889201 149.535529,26.6961966 C149.486705,26.2458435 149.416182,25.7937402 149.416753,25.342512 C149.419037,22.6118086 149.439595,19.8811051 149.454442,17.1504016 C149.455013,17.0141873 149.451301,16.8762229 149.467861,16.7414669 C149.573217,15.8883044 149.807341,15.6348349 150.641909,15.5622067 C151.528156,15.4852033 152.418399,15.393616 153.306359,15.402658 C155.931979,15.4292009 158.557313,15.4959955 161.182647,15.5607483 C162.255336,15.5869995 162.54428,15.8346354 162.531146,16.9517679 C162.494885,20.0893642 162.41494,23.226669 162.322433,26.3633903 C162.289027,27.4889815 161.87417,28.3996049 160.716396,28.7779132 C160.260996,28.9266697 159.956063,29.2110573 160.004601,29.8390432 C160.276414,29.8976708 160.520531,29.9936334 160.764934,29.9933417 C161.163517,29.9927583 161.562385,29.895629 161.960682,29.8979625 C164.230832,29.9131298 166.501268,29.9358808 168.771418,29.977591 C169.687358,29.9942167 169.782721,29.9449229 170,28.8934183 C169.618834,28.8307072 169.245092,28.7636209 168.86935,28.7084935" id="Fill-2" fill="#E13020"></path>
                        <path d="M185.719272,20.6540698 C185.108244,22.8853123 183.762942,24.6407478 181.435715,25.2832883 C179.126424,25.9209501 176.871814,25.7111703 174.946441,24.0696645 C173.536623,22.8678068 172.57437,21.3858599 172.153132,19.5802036 C171.365334,16.2022027 171.299082,12.8488819 172.493074,9.53229407 C173.519264,6.68146915 176.715875,5.10367215 179.524518,5.46612352 C182.954604,5.90864134 184.666175,8.14217972 185.691787,11.1135348 C186.253921,12.7412657 186.353444,14.4430366 186.493182,16.1812535 C186.244373,17.6749663 186.117076,19.2008206 185.719272,20.6540698 Z M189.694133,11.6797395 C189.333939,9.73633439 188.680383,7.85061156 187.36488,6.30581686 C184.762806,3.25066465 181.425589,2.44598244 177.600302,3.34823667 C175.907537,3.74713406 174.454032,4.63905714 173.119724,5.72325449 C171.167445,7.30908684 169.610077,9.19337478 168.782644,11.5907768 C167.61064,14.9859962 167.819813,18.3771979 168.978508,21.7216225 C169.621071,23.5780737 170.725665,25.1923167 172.36404,26.2994722 C173.944553,27.3675989 175.717169,28.0586384 177.71053,27.9960775 C178.381735,27.9320817 179.068851,27.9383952 179.720961,27.7914632 C183.617997,26.9147499 186.364438,24.5118953 188.328868,21.176941 C190.073421,18.2144822 190.305449,14.975665 189.694133,11.6797395 L189.694133,11.6797395 Z" id="Fill-3" fill="#E13020"></path>
                        <path d="M16.3571339,15.2169163 C14.8684642,15.2542714 13.3783476,15.2583571 11.889678,15.2288816 C11.4680233,15.2204184 11.049552,15.0441494 10.6542327,14.9507618 C10.7231097,13.7206728 13.1882123,7.48471968 14.0963471,6.35122838 C14.3712764,6.81845793 14.6088731,7.13422456 14.7570455,7.48792988 C15.6156931,9.53895377 16.451478,11.5999001 17.298839,13.6558852 C17.7667975,14.7922949 17.5509057,15.1871491 16.3571339,15.2169163 Z M75.5140987,28.3501232 C74.2369799,28.2859192 73.7047747,27.4679027 73.5007482,26.3335359 C73.4289772,25.9340123 73.4055359,25.5210643 73.4026419,25.113953 C73.3893295,23.246494 73.3632836,21.379035 73.3945387,19.5121596 C73.431003,17.3298095 73.5476309,15.1483349 73.577439,12.9659847 C73.5887256,12.1240377 73.8894114,11.254658 73.4822267,10.4363497 C72.7396283,10.400162 72.7185021,10.3718539 72.3590683,10.6733206 C71.6946077,11.2304356 70.9135191,11.393572 70.0864161,11.4180862 C68.9742549,11.4510637 68.7505493,11.2444438 68.7273973,10.0826444 C68.698168,8.62609055 68.7117698,7.16836938 68.6848557,5.71123188 C68.6784889,5.36920001 68.5835659,5.02891915 68.5068751,4.54622229 C68.0056357,4.63552413 67.6236287,4.69651787 67.2445157,4.77268708 C66.2802375,4.96646623 65.3191426,5.32484093 64.353128,5.33738988 C60.379966,5.39079588 56.4053569,5.34468578 52.4313267,5.31958788 C51.9847837,5.31666952 51.5006188,5.30733076 51.1003796,5.13952502 C50.1696717,4.75021571 49.2890299,4.30458203 48.3282244,5.0697762 C48.1812096,5.18651063 47.8897846,5.13135361 47.6649214,5.13398014 C46.4011149,5.14857194 45.1370191,5.15849437 43.8729233,5.16579027 C43.1960185,5.16958414 42.5176667,5.14127604 41.8422089,5.17279434 C41.3936401,5.19409837 41.052149,5.38379181 41.1907712,6.04042297 C41.4564397,6.10550241 41.7438131,6.22282051 42.0375534,6.24062251 C43.7652668,6.34539166 44.7113128,7.72694362 44.7127598,9.27075643 C44.7173902,13.7340973 44.6988687,18.1971463 44.6739803,22.6604871 C44.6722439,22.9928884 44.5495387,23.3244142 44.4525899,23.8088621 C44.0934455,23.5931952 43.8121494,23.5190689 43.6891548,23.3366713 C41.7145838,20.4008005 39.7379871,17.4660969 37.8071154,14.5007506 C35.9514876,11.6512632 34.1398484,8.77288409 32.3296562,5.89362943 C32.031575,5.41968765 31.6594076,5.17366984 31.1205462,5.1652066 C29.6310084,5.14273522 28.1417599,5.11501079 26.6522221,5.11092509 C26.241854,5.10975774 25.8190417,5.16666578 25.7579785,5.85948461 C25.9880509,5.96512926 26.2401176,6.13497786 26.5159151,6.19772261 C27.9255787,6.51786678 28.4320274,7.03237377 28.6218733,8.44661136 C28.6820683,8.89633075 28.7081142,9.35480521 28.705799,9.80890214 C28.6829365,14.363004 28.6606527,18.9171059 28.6108761,23.4712077 C28.6033517,24.1468082 28.4809358,24.8262026 28.3599669,25.4942154 C28.2734366,25.9710755 28.0080575,26.3282829 27.4246286,26.3361624 C26.8548016,26.077012 26.6325429,25.541201 26.4039176,24.9846696 C23.9188464,18.9366589 21.4033883,12.901489 18.9420478,6.84355583 C18.1598017,4.91802145 17.0869987,3.0826644 16.972686,0.921326472 C16.9477977,0.447384695 16.702966,0.0539896729 16.0819152,0 C15.0377628,0.872589848 13.9536733,1.73759196 12.5335913,2.06619937 C11.880996,2.21707862 11.6752331,2.67613676 11.9342454,3.34181483 C12.2650288,4.19164147 12.0942832,4.94983158 11.7837578,5.72086247 C10.7477086,8.29223008 9.71368516,10.8641814 8.65853556,13.4273776 C7.27520724,16.7881617 5.91126867,20.1579928 4.46253613,23.4898852 C3.66176846,25.3322464 2.67752168,27.0747995 0.796137282,28.0787156 C0.531336986,28.2196724 0.378534193,28.5745451 0,29.0479032 C0.647096678,29.1786458 1.02794607,29.3528719 1.38477532,29.3120148 C3.41433212,29.0791297 5.43144475,29.076795 7.45752876,29.3697984 C7.97150179,29.4442166 8.52714831,29.3146414 9.04719873,29.2019926 C9.19913333,29.169307 9.39013682,28.8707587 9.38926862,28.6947816 C9.38868982,28.5237656 9.19710753,28.302262 9.03070297,28.1972011 C8.84953906,28.0830931 8.59689353,28.0903891 8.3830275,28.0218076 C7.02429811,27.5855127 6.39340779,26.659225 6.55199857,25.2292282 C6.61161481,24.6925417 6.7644176,24.1538123 6.95744689,23.6477686 C7.65374144,21.8220421 8.40675823,20.0182034 9.09321321,18.188683 C9.3600393,17.4774785 9.84536181,17.1926465 10.5378942,17.1908955 C12.795787,17.1850588 15.0539691,17.1809731 17.3115725,17.2031526 C18.2599338,17.2124914 18.8821422,17.6324435 19.2010601,18.623227 C19.7300819,20.266264 20.3968577,21.8637747 20.9869428,23.4872587 C21.2028346,24.0823125 21.4201734,24.6858295 21.5414317,25.3045219 C21.8154928,26.7030004 21.3209095,27.5548699 19.9833062,28.0612054 C19.3799088,28.2897131 18.8364171,28.5482798 18.6659609,29.4337105 C19.0366814,29.5148409 19.3596509,29.6371202 19.6858038,29.6461671 C20.5878612,29.671265 21.4913656,29.644708 22.3945806,29.646459 C25.7817092,29.6528794 29.1688378,29.6590079 32.5559664,29.6744752 C33.2085616,29.6773936 33.8229562,29.6525875 34.1100402,28.693906 C33.770575,28.5719186 33.4724937,28.4213312 33.1570486,28.3588782 C31.3430942,28.0007954 30.5614269,27.1419218 30.5524555,25.2963505 C30.5319082,20.969589 30.5469569,16.6428274 30.5666361,12.3163576 C30.5680831,11.9495197 30.7110463,11.5835573 30.8470639,10.9388914 C31.343673,11.4277168 31.6782185,11.6594347 31.8854284,11.975785 C35.3177032,17.2116159 38.7334823,22.4582447 42.1544706,27.7016634 C42.5509476,28.3095579 42.9335334,28.9282504 43.3615548,29.5130899 C43.7620834,30.0602825 44.2173084,30.1571721 44.6192839,29.7483098 C45.2513318,29.1045194 45.8839585,28.4435107 46.3956164,27.7048736 C46.6557863,27.3292806 46.7553396,26.7669125 46.7495516,26.2912197 C46.7342135,25.067551 46.5455252,23.8444661 46.5579693,22.6228403 C46.6036944,18.1171832 46.6922506,13.6121098 46.7944085,9.10732823 C46.8077209,8.52628261 46.9257958,7.9242248 47.1191144,7.3764485 C47.3295077,6.77993557 47.6889415,6.24033068 48.5499042,6.2146491 C49.5917415,7.94582067 48.3230152,9.85384489 48.8398823,11.5663389 C49.3781648,11.7262651 49.6568563,11.5213962 49.8067651,11.1504726 C49.993717,10.6884961 50.1410212,10.2090094 50.2889042,9.73214925 C50.6981147,8.41071553 51.5168251,7.49143191 52.8929185,7.24191207 C53.6821102,7.0989124 54.5019782,7.07410633 55.3067975,7.08607161 C56.4189587,7.10241443 56.6073576,7.32070781 56.6070682,8.49593166 C56.604753,14.3253572 56.5810223,20.1550745 56.5865209,25.9842081 C56.5879678,27.3027235 56.1995941,28.2964253 54.8310251,28.7012019 C54.4435196,28.8156017 54.0412546,29.0029604 54.2548313,29.7094956 C54.6437838,29.7252547 55.0787509,29.7620261 55.5131391,29.7561893 C56.1900439,29.7471424 56.8666593,29.6849813 57.5432747,29.6876079 C59.0779588,29.6934446 60.6129323,29.7316751 62.1479059,29.7433486 C62.7165753,29.7477261 63.3480445,29.8379034 63.5465723,29.0741684 C63.4698815,28.9638544 63.4342854,28.8532485 63.365119,28.8249404 C63.1610926,28.7414753 62.9472265,28.6714347 62.7310453,28.6299939 C60.8158012,28.2599458 60.3967511,27.7533184 60.3950147,25.7880943 C60.3912525,21.825836 60.3843069,17.8635777 60.3840175,13.9010275 C60.3837281,12.1249132 60.3874903,10.3487989 60.4060119,8.57297638 C60.4193243,7.27343036 60.7694973,6.97721675 62.0631119,7.10766748 C62.5113913,7.15290207 62.9645905,7.24395492 63.4085289,7.21389581 C65.707227,7.05747167 66.9157582,8.62112933 67.0688504,10.5632984 C67.1657991,11.7945548 67.6450442,12.3814371 68.7534433,12.6449651 C69.4998039,12.8221096 69.8754441,13.3768899 69.986284,14.1114413 C70.053714,14.5599934 70.1026225,15.0161331 70.1029119,15.4687709 C70.1072529,18.7475491 70.1023331,22.026911 70.0841009,25.3056893 C70.0817857,25.7107577 69.9825218,26.1149507 69.9298511,26.5197273 C69.829719,27.2910501 69.4951735,27.8799752 68.7702284,28.245354 C68.481408,28.3909802 68.270436,28.693906 68.0241572,28.925332 C68.0762491,29.0569501 68.1283409,29.18886 68.1801434,29.3204781 C68.5170041,29.3204781 68.8544436,29.3353617 69.1898573,29.3172679 C69.8641575,29.2807884 70.5387471,29.1722254 71.2107321,29.1900274 C72.3793262,29.2218375 73.5470521,29.3149332 74.713331,29.4045269 C75.6434601,29.475443 75.8032085,29.3852657 76,28.5252248 C75.8416986,28.4656902 75.6802139,28.3582946 75.5140987,28.3501232 L75.5140987,28.3501232 Z" id="Fill-5" fill="#E13020"></path>
                        <path d="M121.901585,14.050362 C121.866896,12.0146825 121.821801,9.97871254 121.824692,7.94303305 C121.825559,7.23426336 122.362365,7.0561995 122.959008,7.07769498 C124.938281,7.14886243 126.919866,7.19156289 128.894802,7.32925012 C130.813947,7.46316111 132.021399,8.55884933 132.632207,10.3726026 C132.735694,10.6799298 132.958569,10.9471708 133.131433,11.2420074 C133.990265,10.9201562 133.806704,10.3139257 133.751203,9.81459169 C133.600885,8.46851025 133.401137,7.12765743 133.218444,5.78535222 C133.125363,5.10185424 132.915786,4.95806695 132.231843,5.0094818 C130.392192,5.14774998 128.55283,5.33452822 126.710289,5.37955253 C124.050253,5.44432943 121.387616,5.4025004 118.726135,5.40279088 C117.463471,5.40308136 116.200518,5.38536211 114.937853,5.39640033 C114.460596,5.40075752 113.934775,5.38884787 113.831866,6.19754246 C114.407985,6.3674729 114.953752,6.54059861 115.506457,6.68903357 C116.552896,6.96963665 117.066287,7.70687331 117.231925,8.72587498 C117.289739,9.08084078 117.283668,9.44887815 117.28309,9.81110594 C117.276153,14.072148 117.261988,18.3334804 117.255918,22.5945225 C117.253605,24.2650694 116.553185,25.5600264 115.198885,26.5055368 C113.071319,27.9913389 110.686479,28.2123937 108.347891,27.4036991 C106.210786,26.664429 104.626096,25.1681698 104.485896,22.6537803 C104.4382,21.7991899 104.434153,20.9408234 104.443114,20.0839092 C104.481849,16.4125403 104.563946,12.7411714 104.563368,9.06980256 C104.563079,7.69380174 104.942629,6.69164788 106.346939,6.24605251 C106.642948,6.15251815 106.876228,5.8588435 107.129744,5.66393184 C106.782569,5.0812302 106.363705,5.20729825 105.964786,5.22995565 C104.750975,5.29908974 103.536875,5.39872416 102.322486,5.40772903 C101.379534,5.41470053 100.436005,5.28747056 99.4916088,5.25087016 C98.8886057,5.22734133 98.226343,5.1558834 98,6.05201229 C98.3029469,6.18359945 98.5330478,6.3195438 98.7816492,6.38606358 C100.086807,6.73580075 100.748781,7.59329588 100.813243,8.93385821 C100.862964,9.97377439 100.953732,11.0148525 100.941591,12.0541877 C100.89852,15.7697094 100.797345,19.4846502 100.761211,23.1998815 C100.73346,26.0706892 102.267851,27.9341144 104.736232,29.1282751 C106.448114,29.9564319 108.27042,29.9674701 110.138978,29.989837 C117.622171,30.0801761 125.102184,29.5282653 132.585088,29.9058884 C132.764891,29.9148933 132.947295,29.9169267 133.125941,29.8986265 C133.895738,29.8187446 134.152145,29.5840373 134.296969,28.8363434 C134.596158,27.2886692 134.353917,25.6616942 134.988428,24.1549777 C135.052313,24.0042189 134.838689,23.5911572 134.666114,23.5226041 C134.481108,23.4496938 134.112253,23.5690808 133.968584,23.7329112 C133.739351,23.9940521 133.595104,24.3493084 133.475428,24.6862645 C132.778477,26.6461288 131.325893,27.6877879 129.3498,27.9413764 C127.238711,28.2121032 125.124443,28.1168259 123.029831,27.6474113 C122.251072,27.4728332 121.855623,27.0069042 121.71311,26.2902916 C121.625522,25.8510868 121.617717,25.3909675 121.61685,24.9401435 C121.613092,22.4980833 121.621764,20.0560232 121.628123,17.6136725 C121.630147,16.8653977 121.903319,16.4128308 122.565293,16.3407919 C124.037534,16.1807378 125.516135,15.9030395 126.994446,16.3524111 C128.199007,16.7187056 129.152654,17.2871737 129.185897,18.7369563 C129.197171,19.2243807 129.456757,19.4733215 130.097628,19.4190019 C130.206319,19.1369464 130.428615,18.819162 130.435842,18.4967299 C130.472554,16.8938646 130.452608,15.289547 130.452608,13.4057883 C127.644857,14.8634138 124.915444,14.8828759 122.121857,14.4111374 C121.990619,14.2017018 121.902741,14.1267581 121.901585,14.050362" id="Fill-6" fill="#E13020"></path>
                        <path d="M82.4435886,25.1157796 C81.2395122,23.8966278 80.5705169,22.4215719 80.196133,20.8151774 C79.8349965,19.2670902 79.6892747,17.6659964 79.4332537,15.9850982 C79.6636438,14.5471469 79.822613,13.0452933 80.1543748,11.5843725 C81.0143059,7.79616741 84.7094754,5.8193157 88.3988852,6.78933649 C90.5749198,7.36151329 92.0430809,8.80299834 92.8984042,10.8075313 C94.4932798,14.5450856 94.7887551,18.4504941 93.6175094,22.3638536 C92.1214135,27.3617871 86.072233,28.789726 82.4435886,25.1157796 Z M97.7348688,29.4573147 C97.3754602,29.66993 96.9665177,29.8383732 96.6465634,30.1140076 C95.6170076,31.0009847 94.419555,31.3325704 93.1290823,31.1585321 C91.5295989,30.9435608 89.9433629,30.6184537 88.3585669,30.3042424 C88.1448801,30.2618371 87.9720875,30.0050495 87.6835239,29.7685812 C88.0023262,29.5556714 88.194126,29.3448229 88.4222122,29.2882825 C90.362673,28.8068059 91.9373894,27.6648081 93.369264,26.3319866 C95.6933243,24.1684339 97.286472,21.5643374 97.6527923,18.2900019 C97.9370361,15.747452 97.728245,13.2711603 96.9633498,10.8172492 C95.421752,5.87173334 90.8908423,3.05296012 85.8553783,4.29036976 C81.596041,5.33666115 78.564683,8.24966833 76.9620317,12.4301222 C75.5652916,16.0740315 75.7579554,19.8569359 77.0976739,23.4781701 C77.9504053,25.7827793 79.3661526,27.7646372 81.7653777,28.7364249 C81.9591934,28.8147569 82.1204665,28.9773105 82.457412,29.2134843 C82.1023232,29.4935358 81.852638,29.7111574 81.5830815,29.8993308 C80.7689404,30.4667959 79.9297444,30.9977454 79.1363385,31.5931862 C78.7412194,31.8894342 78.3757631,32.2787382 78.8060166,33.0405609 C79.0960202,32.8788907 79.3457055,32.7802396 79.5487368,32.6197473 C80.4584897,31.8994465 81.4439835,31.6724016 82.5852785,31.9286002 C84.3368194,32.3217325 86.1085194,32.6197473 87.8646681,32.9928549 C89.1810596,33.2723175 90.4827638,33.6248114 91.7985794,33.9092801 C92.9678092,34.1622394 94.0181002,33.8863106 94.9382207,33.0800213 C95.8240707,32.3037691 96.7410234,31.564916 97.6280253,30.7898417 C97.9975135,30.4673849 98.1887373,30.0710133 97.7348688,29.4573147 L97.7348688,29.4573147 Z" id="Fill-7" fill="#E13020"></path>
                        <path d="M72.7996247,4.00270849 C72.6572822,3.99574156 72.474044,3.9969532 72.3744994,4.07237774 C71.619038,4.64487723 70.718381,5.12801834 70.1807132,5.85379019 C69.6474837,6.57320094 70.4191131,7.25323341 70.8848171,7.8224009 C71.3536914,8.39611203 71.812738,9.10461802 72.7511205,8.98708903 C73.4694904,8.89682191 74.9721705,7.0981436 74.9994343,6.37206884 C75.0317705,5.51816615 73.6704817,4.04511586 72.7996247,4.00270849" id="Fill-8" fill="#E13020"></path>
                        <path d="M257.500051,5.93453053 L257.500051,6.86854797 C258.078502,6.86854797 258.499949,6.84238071 258.499949,6.39476655 C258.499949,5.98717291 258.236737,5.93453053 257.500051,5.93453053 Z M258.696973,8.64484351 L257.723551,7.3423294 L257.500051,7.3423294 L257.500051,8.64484351 L256.868343,8.64484351 L256.868343,5.42134428 L257.539148,5.42134428 C258.749615,5.42134428 259.157517,5.71072345 259.157517,6.38183684 C259.157517,6.77650077 258.92078,7.1711647 258.486711,7.31616213 L259.460133,8.64484351 L258.696973,8.64484351 Z M258,9.35536172 C259.289277,9.35536172 260.341816,8.2895844 260.341816,7.00030785 C260.341816,5.71072345 259.289277,4.64494613 258,4.64494613 C256.710416,4.64494613 255.657568,5.71072345 255.657568,7.00030785 C255.657568,8.2895844 256.710416,9.35536172 258,9.35536172 Z M258,4 C259.657773,4 261,5.34222678 261,7.00030785 C261,8.65808107 259.657773,10 258,10 C256.341919,10 255,8.65808107 255,7.00030785 C255,5.34222678 256.341919,4 258,4 L258,4 Z" id="Fill-9" fill="#000000"></path>
                    </g>
                </g>
            </g>
        </g>
    </g>
</svg>