<?xml version="1.0" encoding="utf-8"?>
<!-- Generator: Adobe Illustrator 19.0.0, SVG Export Plug-In . SVG Version: 6.00 Build 0)  -->
<svg version="1.1" id="Layer_1" xmlns="http://www.w3.org/2000/svg" xmlns:xlink="http://www.w3.org/1999/xlink" x="0px" y="0px"
	 viewBox="0 0 1000 1000" style="enable-background:new 0 0 1000 1000;" xml:space="preserve">
<style type="text/css">
	.st0{fill:#8A4B91;}
	.st1{fill:#B0DED2;}
	.st2{fill:#010101;}
	.st3{fill:#474D5C;}
</style>
<g id="XMLID_19_">
	<g id="XMLID_2_">
		<path id="XMLID_24_" class="st0" d="M42.2,493.5c41.9-4.9,67.7-26.5,82.2-52.7c8-14.5,12-35.1,12-61.9v-57.6
			c0-44.3,9.5-79.4,28.9-105.6c19.4-25.9,58.2-41.3,116.7-46.5v40.3c-38.2,3.4-63.7,20-77.3,50.2c-7.4,16.6-11.1,39.4-11.1,68.7
			v39.7c0,35.4-4.3,62.5-13.2,81.6c-15.7,34.2-46.5,53.6-92.1,57.6"/>
		<path id="XMLID_14_" class="st1" d="M909.3,507.7c-45.3-4.3-76.1-23.4-91.8-57.6c-8.6-18.8-13.2-46.2-13.2-81.9v-39.4
			c0-31.1-3.7-54.8-11.1-70.8c-13.2-28.6-39.1-45-77.3-48v-40.3c61,4.9,102.2,23.7,124.1,56.7c14.2,20.9,21.2,52.7,21.2,95.1V379
			c0,26.5,4,46.8,12,61.6c14.8,26.8,42.8,48.6,84.7,53.3v19.4"/>
	</g>
</g>
<path id="XMLID_6_" class="st2" d="M196.2,679.8v-53.6c0-33.9-4.3-60.7-13.2-80.1c-15.4-33.9-44-53.6-85.9-58.8H42.2v19.7
	c41.6,4.6,69.6,20.3,84.4,47.4c8,14.8,12,35.1,12,61v73c0,46.8,13.9,80.4,41.3,100.7c27.4,20.3,62.2,32.6,104.4,36.9v-41.6
	c-21.9-2.5-42.2-11.7-60.7-27.1C205.4,742.3,196.2,716.4,196.2,679.8z"/>
<path id="XMLID_8_" class="st3" d="M903.8,493.5c-41.6,5.2-70.2,24.9-85.6,58.8c-8.6,19.4-13.2,46.2-13.2,80.1V686
	c0,32.9-8.3,57.6-25.2,74.5c-16.6,16.9-37.9,27.1-63.1,30.2v41.6c41.9-4.6,76.4-16.6,104.1-36.6c27.4-19.7,41.3-53.6,41.3-101.3v-73
	c0-25.2,4-45.6,12-60.7c14.8-27.7,43.1-43.7,84.7-47.7v-19.7L903.8,493.5L903.8,493.5z"/>
</svg>
