<svg width="352" height="340" xmlns="http://www.w3.org/2000/svg">
 <style type="text/css">.st0{fill:#894A90;}
	.st1{fill:#B0DDD1;}
	.st2{fill:#464C5B;}</style>

 <g>
  <title>background</title>
  <rect fill="none" id="canvas_background" height="342" width="354" y="-1" x="-1"/>
 </g>
 <g>
  <title>Layer 1</title>
  <g stroke="null" id="svg_1">
   <g stroke="null" id="XMLID_19_">
    <g stroke="null" id="XMLID_2_">
     <path stroke="null" d="m9.599982,165.621184c23.338071,-2.402601 37.752762,-12.913981 45.818125,-25.677799c4.46169,-7.057641 6.692535,-17.118532 6.692535,-30.182676l0,-28.0804c0,-21.623409 5.319707,-38.741942 16.130726,-51.50576c10.811018,-12.613656 32.433055,-20.121784 65.037713,-22.674547l0,19.671296c-21.27883,1.651788 -35.521917,9.760567 -43.072469,24.476498c-4.118483,8.108779 -6.177725,19.220808 -6.177725,33.486252l0,19.370971c0,17.268695 -2.402448,30.483001 -7.378949,39.79308c-8.751777,16.668045 -25.912123,26.128286 -51.309436,28.0804" class="st0" id="XMLID_24_"/>
     <path stroke="null" d="m321.201605,173.528662c-23.918311,-2.102276 -40.189271,-11.412355 -48.487461,-28.0804c-4.555869,-9.159917 -6.996513,-22.524385 -6.996513,-39.943242l0,-19.220808c0,-15.166419 -1.952515,-26.728937 -5.857546,-34.53739c-6.996513,-13.965119 -20.664119,-21.923735 -40.840109,-23.42536l0,-19.671296c32.216501,2.402601 54.019587,11.562518 65.571969,27.629912c7.484642,10.211054 11.226962,25.677799 11.226962,46.400233l0,28.0804c0,12.913981 2.115225,22.82471 6.345674,30.032513c7.810061,13.064143 22.616634,23.725685 44.74514,25.978124l0,9.460242" class="st1" id="XMLID_14_"/>
    </g>
   </g>
   <path stroke="null" fill="white" d="m85.845487,258.469536l0,-26.128286c0,-16.517882 -2.071981,-29.582025 -6.363941,-39.042267c-7.399932,-16.517882 -21.163804,-26.128286 -41.291618,-28.68105l-26.343757,0l0,9.610404c19.979815,2.252438 33.447691,9.910729 40.551625,23.125035c3.847964,7.207803 5.771947,17.118532 5.771947,29.732188l0,35.588528c0,22.82471 6.659938,39.19243 19.831817,49.103159c13.171878,9.910729 29.895724,15.917232 50.171536,18.019508l0,-20.271946c-10.507903,-1.201301 -20.275813,-5.706177 -29.155731,-13.214306c-8.731919,-7.357966 -13.171878,-19.971621 -13.171878,-37.840967z" id="XMLID_6_"/>
   <path stroke="null" d="m321.364923,166.621184c-19.594021,2.552764 -33.092124,12.163168 -40.349169,28.68105c-4.063945,9.460242 -6.241059,22.524385 -6.241059,39.042267l0,26.128286c0,16.067395 -3.918804,28.0804 -11.901553,36.339341c-7.837608,8.258941 -17.85233,13.214306 -29.753884,14.715931l0,20.271946c19.739162,-2.252438 35.994942,-8.108779 49.057623,-17.869345c12.91754,-9.610404 19.44888,-26.128286 19.44888,-49.403484l0,-35.588528c0,-12.31333 1.886832,-22.22406 5.660495,-29.582025c6.966763,-13.514631 20.319725,-21.323084 39.913746,-23.275198l0,-9.610404l-25.83508,0.150163l0,0z" class="st2" id="XMLID_8_"/>
  </g>
 </g>
</svg>