<svg width="385" height="340" xmlns="http://www.w3.org/2000/svg">
 <style type="text/css">.st0{fill:#894A90;}
	.st1{fill:#B0DDD1;}
	.st2{fill:#464C5B;}</style>

 <g>
  <title>background</title>
  <rect fill="none" id="canvas_background" height="342" width="387" y="-1" x="-1"/>
 </g>
 <g>
  <title>Layer 1</title>
  <g stroke="null" id="svg_1">
   <g stroke="null" id="XMLID_19_">
    <g stroke="null" id="XMLID_2_">
     <path stroke="null" d="m17.599998,165.621184c13.917669,-2.402601 22.513876,-12.913981 27.323658,-25.677799c2.660731,-7.057641 3.991096,-17.118532 3.991096,-30.182676l0,-28.0804c0,-21.623409 3.17241,-38.741942 9.619565,-51.50576c6.447155,-12.613656 19.341466,-20.121784 38.785268,-22.674547l0,19.671296c-12.689639,1.651788 -21.18351,9.760567 -25.686285,24.476498c-2.456059,8.108779 -3.684089,19.220808 -3.684089,33.486252l0,19.370971c0,17.268695 -1.432701,30.483001 -4.400439,39.79308c-5.219126,16.668045 -15.452706,26.128286 -30.598404,28.0804" class="st0" id="XMLID_24_"/>
     <path stroke="null" d="m347.752608,172.528662c-15.06185,-2.102276 -25.308006,-11.412355 -30.533545,-28.0804c-2.868924,-9.159917 -4.405847,-22.524385 -4.405847,-39.943242l0,-19.220808c0,-15.166419 -1.229539,-26.728937 -3.688616,-34.53739c-4.405847,-13.965119 -13.012618,-21.923735 -25.717852,-23.42536l0,-19.671296c20.287389,2.402601 34.017239,11.562518 41.292009,27.629912c4.713232,10.211054 7.069848,25.677799 7.069848,46.400233l0,28.0804c0,12.913981 1.332,22.82471 3.996001,30.032513c4.918155,13.064143 14.242157,23.725685 28.17693,25.978124l0,9.460242" class="st1" id="XMLID_14_"/>
    </g>
   </g>
   <path stroke="null" fill="white" d="m62.132968,257.469536l0,-26.128286c0,-16.517882 -1.274923,-29.582025 -3.915835,-39.042267c-4.553297,-16.517882 -13.022429,-26.128286 -25.407396,-28.68105l-16.209736,0l0,9.610404c12.293901,2.252438 20.580901,9.910729 24.952066,23.125035c2.367714,7.207803 3.551571,17.118532 3.551571,29.732188l0,35.588528c0,22.82471 4.097967,39.19243 12.202835,49.103159c8.104868,9.910729 18.395319,15.917232 30.871352,18.019508l0,-20.271946c-6.465681,-1.201301 -12.476033,-5.706177 -17.939989,-13.214306c-5.37289,-7.357966 -8.104868,-19.971621 -8.104868,-37.840967z" id="XMLID_6_"/>
   <path stroke="null" d="m347.310881,165.621184c-12.809168,2.552764 -21.633261,12.163168 -26.377397,28.68105c-2.656716,9.460242 -4.079957,22.524385 -4.079957,39.042267l0,26.128286c0,16.067395 -2.561834,28.0804 -7.780383,36.339341c-5.123667,8.258941 -11.670575,13.214306 -19.450958,14.715931l0,20.271946c12.90405,-2.252438 23.530916,-8.108779 32.070361,-17.869345c8.444562,-9.610404 12.714285,-26.128286 12.714285,-49.403484l0,-35.588528c0,-12.31333 1.233475,-22.22406 3.700426,-29.582025c4.554371,-13.514631 13.283581,-21.323084 26.092749,-23.275198l0,-9.610404l-16.889125,0.150163l0,0z" class="st2" id="XMLID_8_"/>
  </g>
 </g>
</svg>