<?xml version="1.0" encoding="utf-8"?>
<!-- Generator: Adobe Illustrator 18.0.0, SVG Export Plug-In . SVG Version: 6.00 Build 0)  -->
<!DOCTYPE svg PUBLIC "-//W3C//DTD SVG 1.1//EN" "http://www.w3.org/Graphics/SVG/1.1/DTD/svg11.dtd">
<svg version="1.1" id="Layer_1" xmlns="http://www.w3.org/2000/svg" xmlns:xlink="http://www.w3.org/1999/xlink" x="0px" y="0px"
	 width="509.9px" height="51.4px" viewBox="0 0 509.9 51.4" enable-background="new 0 0 509.9 51.4" xml:space="preserve">
<line fill="#FFFFFF" x1="184.9" y1="60" x2="184.9" y2="57.3"/>
<g>
	<g>
		<path fill="#010101" d="M3.9,1.9V24h7.6v3.6H0V1.9H3.9z"/>
		<path fill="#010101" d="M29.2,1.9v25.7h-3.9V1.9H29.2z"/>
		<path fill="#010101" d="M64.7,3.3v4.6c-2.2-1.9-4.6-2.8-7-2.8c-2.6,0-4.9,0.9-6.7,2.8c-1.8,1.9-2.7,4.2-2.7,6.9
			c0,2.7,0.9,5,2.7,6.8s4.1,2.8,6.7,2.8c1.4,0,2.5-0.2,3.5-0.7c0.5-0.2,1.1-0.5,1.7-0.9c0.6-0.4,1.2-0.8,1.8-1.4v4.7
			c-2.2,1.3-4.6,1.9-7,1.9c-3.7,0-6.8-1.3-9.4-3.8c-2.6-2.6-3.9-5.7-3.9-9.4c0-3.3,1.1-6.2,3.2-8.8C50.3,3,53.7,1.4,58,1.4
			C60.3,1.4,62.5,2.1,64.7,3.3z"/>
		<path fill="#010101" d="M78.3,14.7c0-3.6,1.3-6.7,4-9.3c2.6-2.6,5.8-3.9,9.5-3.9c3.7,0,6.8,1.3,9.4,3.9c2.6,2.6,3.9,5.8,3.9,9.4
			c0,3.7-1.3,6.8-4,9.4c-2.7,2.6-5.9,3.9-9.6,3.9c-3.3,0-6.3-1.1-8.9-3.4C79.8,22.1,78.3,18.8,78.3,14.7z M82.3,14.7
			c0,2.8,1,5.2,2.9,7c1.9,1.8,4.1,2.7,6.6,2.7c2.7,0,5-0.9,6.8-2.8c1.9-1.9,2.8-4.2,2.8-6.9c0-2.7-0.9-5-2.7-6.9
			c-1.8-1.9-4.1-2.8-6.8-2.8c-2.7,0-4.9,0.9-6.8,2.8C83.2,9.7,82.3,12,82.3,14.7z"/>
		<path fill="#010101" d="M129,16.7l8,11h-4.7l-7.3-10.5h-0.7v10.5h-3.9V1.9h4.5c3.4,0,5.9,0.6,7.4,1.9c1.7,1.4,2.5,3.3,2.5,5.6
			c0,1.8-0.5,3.4-1.6,4.7C132.1,15.5,130.8,16.3,129,16.7z M124.2,13.7h1.2c3.7,0,5.5-1.4,5.5-4.2c0-2.6-1.8-3.9-5.4-3.9h-1.4V13.7z
			"/>
		<path fill="#010101" d="M165.3,5.6H155v6.2h10v3.6h-10V24h10.3v3.6h-14.2V1.9h14.2V5.6z"/>
		<path fill="#010101" d="M195.2,5.8L192,7.6c-0.6-1-1.1-1.7-1.7-2c-0.6-0.4-1.3-0.5-2.1-0.5c-1.1,0-2,0.3-2.7,0.9
			c-0.7,0.6-1.1,1.4-1.1,2.3c0,1.3,0.9,2.3,2.8,3l2.6,1c2.1,0.8,3.6,1.9,4.6,3.1c1,1.2,1.4,2.7,1.4,4.5c0,2.4-0.8,4.3-2.4,5.9
			c-1.6,1.6-3.6,2.3-5.9,2.3c-2.2,0-4.1-0.7-5.5-2c-1.4-1.3-2.3-3.2-2.7-5.6l3.9-0.9c0.2,1.5,0.5,2.6,0.9,3.1c0.8,1.1,2,1.7,3.5,1.7
			c1.2,0,2.2-0.4,3-1.2c0.8-0.8,1.2-1.8,1.2-3.1c0-0.5-0.1-1-0.2-1.4c-0.1-0.4-0.4-0.8-0.7-1.1c-0.3-0.4-0.7-0.7-1.1-1
			c-0.5-0.3-1-0.6-1.7-0.9l-2.5-1c-3.5-1.5-5.3-3.7-5.3-6.5c0-1.9,0.7-3.5,2.2-4.8c1.5-1.3,3.3-2,5.5-2
			C191.2,1.4,193.5,2.9,195.2,5.8z"/>
		<path fill="#010101" d="M230.6,27.7L236,0l8.8,20L254,0l4.9,27.7h-4l-2.5-15.5l-7.6,16.7l-7.4-16.7l-2.8,15.5H230.6z"/>
		<path fill="#010101" d="M278.4,1.9v15.5c0,2.2,0.4,3.8,1.1,4.8c1.1,1.5,2.6,2.2,4.5,2.2c2,0,3.5-0.7,4.6-2.2
			c0.7-1,1.1-2.6,1.1-4.8V1.9h3.9v16.6c0,2.7-0.8,4.9-2.5,6.7c-1.9,2-4.2,2.9-7,2.9c-2.8,0-5.1-1-7-2.9c-1.7-1.8-2.5-4-2.5-6.7V1.9
			H278.4z"/>
		<path fill="#010101" d="M310,27.7V0.2l18.8,19.6V1.9h3.9v27.3L313.9,9.6v18H310z"/>
		<path fill="#010101" d="M349,27.7V1.9h5.4c2.6,0,4.6,0.3,6.1,0.8c1.6,0.5,3.1,1.3,4.4,2.5c2.7,2.4,4,5.6,4,9.5
			c0,4-1.4,7.2-4.1,9.6c-1.4,1.2-2.8,2.1-4.4,2.5c-1.4,0.5-3.4,0.7-6,0.7H349z M352.9,24h1.7c1.7,0,3.2-0.2,4.3-0.5
			c1.2-0.4,2.2-1,3.1-1.8c1.9-1.7,2.9-4,2.9-6.8c0-2.8-0.9-5.1-2.8-6.9c-1.7-1.6-4.2-2.3-7.5-2.3h-1.7V24z"/>
		<path fill="#010101" d="M387.9,1.9v25.7H384V1.9H387.9z"/>
		<path fill="#010101" d="M419.4,21.4h-11l-2.9,6.2h-4.2l12.7-27.3l12.3,27.3h-4.2L419.4,21.4z M417.8,17.8L414,9l-4,8.7H417.8z"/>
		<path fill="#010101" d="M443.7,1.9V24h7.6v3.6h-11.4V1.9H443.7z"/>
		<path fill="#010101" d="M479.4,5.6h-10.3v6.2h10v3.6h-10V24h10.3v3.6h-14.2V1.9h14.2V5.6z"/>
		<path fill="#010101" d="M509.2,5.8l-3.1,1.9c-0.6-1-1.1-1.7-1.7-2c-0.6-0.4-1.3-0.5-2.1-0.5c-1.1,0-2,0.3-2.7,0.9
			c-0.7,0.6-1.1,1.4-1.1,2.3c0,1.3,0.9,2.3,2.8,3l2.6,1c2.1,0.8,3.6,1.9,4.6,3.1c1,1.2,1.4,2.7,1.4,4.5c0,2.4-0.8,4.3-2.4,5.9
			c-1.6,1.6-3.6,2.3-5.9,2.3c-2.2,0-4.1-0.7-5.5-2c-1.4-1.3-2.3-3.2-2.7-5.6l3.9-0.9c0.2,1.5,0.5,2.6,0.9,3.1c0.8,1.1,2,1.7,3.5,1.7
			c1.2,0,2.2-0.4,3-1.2c0.8-0.8,1.2-1.8,1.2-3.1c0-0.5-0.1-1-0.2-1.4c-0.1-0.4-0.4-0.8-0.7-1.1c-0.3-0.4-0.7-0.7-1.1-1
			c-0.5-0.3-1-0.6-1.7-0.9l-2.5-1c-3.5-1.5-5.3-3.7-5.3-6.5c0-1.9,0.7-3.5,2.2-4.8c1.5-1.3,3.3-2,5.5-2
			C505.3,1.4,507.6,2.9,509.2,5.8z"/>
	</g>
	<g>
		<g>
			<rect x="151.9" y="47" fill="#010101" width="57.3" height="2.4"/>
		</g>
		<g>
			<rect x="300.8" y="47" fill="#010101" width="57.3" height="2.4"/>
		</g>
		<g>
			<g>
				<path fill="#010101" d="M228.1,40.8h-4.5v2.9h4.4v1.7h-4.4v4h4.5V51h-6.2V39.1h6.2V40.8z"/>
				<path fill="#010101" d="M236.8,40.9l-1.4,0.9c-0.3-0.5-0.5-0.8-0.7-0.9c-0.2-0.2-0.6-0.2-0.9-0.2c-0.5,0-0.9,0.1-1.2,0.4
					c-0.3,0.3-0.5,0.6-0.5,1c0,0.6,0.4,1,1.2,1.4l1.1,0.5c0.9,0.4,1.6,0.9,2,1.4s0.6,1.2,0.6,2.1c0,1.1-0.3,2-1,2.7
					c-0.7,0.7-1.6,1.1-2.6,1.1c-1,0-1.8-0.3-2.4-0.9c-0.6-0.6-1-1.5-1.2-2.6l1.7-0.4c0.1,0.7,0.2,1.2,0.4,1.4
					c0.3,0.5,0.9,0.8,1.5,0.8c0.5,0,1-0.2,1.3-0.6c0.3-0.4,0.5-0.8,0.5-1.4c0-0.2,0-0.4-0.1-0.6c-0.1-0.2-0.2-0.4-0.3-0.5
					c-0.1-0.2-0.3-0.3-0.5-0.5c-0.2-0.1-0.4-0.3-0.7-0.4l-1.1-0.5c-1.5-0.7-2.3-1.7-2.3-3c0-0.9,0.3-1.6,1-2.2
					c0.6-0.6,1.5-0.9,2.4-0.9C235,38.9,236,39.6,236.8,40.9z"/>
				<path fill="#010101" d="M242.4,40.8V51h-1.7V40.8h-2.6v-1.7h6.9v1.7H242.4z"/>
				<path fill="#010101" d="M246,50.1c0-0.3,0.1-0.5,0.3-0.7c0.2-0.2,0.4-0.3,0.7-0.3c0.3,0,0.5,0.1,0.7,0.3
					c0.2,0.2,0.3,0.5,0.3,0.8c0,0.3-0.1,0.6-0.3,0.8c-0.2,0.2-0.4,0.3-0.7,0.3c-0.3,0-0.5-0.1-0.7-0.3C246.1,50.7,246,50.4,246,50.1
					z"/>
				<path fill="#010101" d="M258,40.8h-2l0.9-1.7h2.7V51H258V40.8z"/>
				<path fill="#010101" d="M265.4,51.4l-1.2-1l2.7-3.9c-0.1,0-0.3,0-0.4,0c-0.1,0-0.2,0-0.2,0c-0.9,0-1.7-0.4-2.4-1.1
					c-0.7-0.7-1-1.6-1-2.6c0-1.1,0.4-2,1.1-2.8c0.7-0.8,1.6-1.2,2.7-1.2c1,0,1.9,0.4,2.7,1.2c0.8,0.8,1.1,1.7,1.1,2.7
					c0,0.9-0.4,1.9-1.1,3L265.4,51.4z M264.5,42.8c0,0.6,0.2,1.2,0.6,1.6c0.4,0.4,0.9,0.7,1.5,0.7c0.6,0,1.1-0.2,1.5-0.7
					c0.4-0.4,0.6-1,0.6-1.6c0-0.6-0.2-1.2-0.6-1.6c-0.4-0.4-0.9-0.7-1.5-0.7c-0.6,0-1.1,0.2-1.5,0.7
					C264.7,41.6,264.5,42.2,264.5,42.8z"/>
				<path fill="#010101" d="M277.1,40.8h-5.6v-1.7h8.4l-7.1,12.3l-1.4-0.9L277.1,40.8z"/>
				<path fill="#010101" d="M283.9,45.5v-1.5c0.7,0,1.2-0.1,1.5-0.3c0.4-0.3,0.7-0.8,0.7-1.4c0-0.5-0.2-0.9-0.5-1.2
					c-0.3-0.3-0.7-0.5-1.2-0.5c-0.5,0-0.8,0.1-1.1,0.4c-0.2,0.2-0.4,0.7-0.6,1.2H281c0.2-1.1,0.5-1.9,1.1-2.5
					c0.5-0.5,1.3-0.8,2.3-0.8c1,0,1.8,0.3,2.4,0.9c0.6,0.6,0.9,1.4,0.9,2.4c0,1.1-0.4,1.9-1.2,2.5c0.9,0.6,1.4,1.5,1.4,2.8
					c0,1.1-0.3,1.9-1,2.6c-0.7,0.7-1.6,1-2.6,1c-1.4,0-2.4-0.5-3-1.6c-0.3-0.4-0.4-1.1-0.5-1.8h1.6c0.1,0.6,0.3,1,0.6,1.3
					c0.3,0.3,0.8,0.5,1.3,0.5c0.5,0,1-0.2,1.4-0.6c0.4-0.4,0.5-0.9,0.5-1.5c0-0.8-0.3-1.4-0.8-1.7C285.1,45.6,284.6,45.5,283.9,45.5
					z"/>
			</g>
		</g>
	</g>
</g>
</svg>
