<?xml version="1.0" encoding="utf-8"?>
<!-- Generator: Adobe Illustrator 19.0.0, SVG Export Plug-In . SVG Version: 6.00 Build 0)  -->
<svg version="1.1" id="Layer_1" xmlns="http://www.w3.org/2000/svg" xmlns:xlink="http://www.w3.org/1999/xlink" x="0px" y="0px"
	 viewBox="0 301 1000 399" style="enable-background:new 0 301 1000 399;" xml:space="preserve">
<style type="text/css">
	.st0{fill:#894A90;}
	.st1{fill:#B0DDD1;}
	.st2{fill:#464C5B;}
</style>
<g>
	<g id="XMLID_19_">
		<g id="XMLID_2_">
			<path id="XMLID_24_" class="st0" d="M346.6,444.8c13.6-1.6,22-8.6,26.7-17.1c2.6-4.7,3.9-11.4,3.9-20.1v-18.7
				c0-14.4,3.1-25.8,9.4-34.3c6.3-8.4,18.9-13.4,37.9-15.1v13.1c-12.4,1.1-20.7,6.5-25.1,16.3c-2.4,5.4-3.6,12.8-3.6,22.3v12.9
				c0,11.5-1.4,20.3-4.3,26.5c-5.1,11.1-15.1,17.4-29.9,18.7"/>
			<path id="XMLID_14_" class="st1" d="M628.2,449.4c-14.7-1.4-24.7-7.6-29.8-18.7c-2.8-6.1-4.3-15-4.3-26.6v-12.8
				c0-10.1-1.2-17.8-3.6-23c-4.3-9.3-12.7-14.6-25.1-15.6v-13.1c19.8,1.6,33.2,7.7,40.3,18.4c4.6,6.8,6.9,17.1,6.9,30.9v18.7
				c0,8.6,1.3,15.2,3.9,20c4.8,8.7,13.9,15.8,27.5,17.3v6.3"/>
		</g>
	</g>
	<g id="XMLID_1_">
		<path id="XMLID_32_" class="st2" d="M115.4,608.7h-6.9V651h6.6v5.2H96.4V651h6.2v-33.5h-0.3l-17.6,36h-3.2l-18.1-36.3h-0.3V651
			h6.3v5.2H50.7V651h6.6v-42.3h-6.9v-5.2h12.1L83,644.7h0.3l19.9-41.2h12.1L115.4,608.7L115.4,608.7z"/>
		<path id="XMLID_37_" class="st2" d="M124.4,622.9c1.9-1.2,3.9-2.1,6-2.7c2.1-0.5,4.3-0.8,6.7-0.8c8.6,0,12.9,4,12.9,12.1v17.2
			c0,2.6,1,3.9,3.1,3.9c0.9,0,1.7-0.2,2.4-0.5l0.1,3.7c-1.5,0.8-3,1.2-4.7,1.2c-4.3,0-6.4-2.4-6.6-7.3v-0.2
			c-1.1,1.9-2.7,3.7-4.8,5.2s-4.6,2.3-7.5,2.3c-2.4,0-4.8-0.7-7.2-2.2c-2.5-1.5-3.7-4.1-3.7-7.9c0-4.5,1.8-7.5,5.4-8.9
			c3.6-1.4,7.4-2.1,11.5-2.1c1.1,0,2.2,0,3.3,0.1c1.1,0.1,2.1,0.1,3.1,0.2V633c0-2.6-0.6-4.7-1.7-6.3c-1.1-1.6-3.3-2.4-6.5-2.4
			c-2.6,0-5,0.5-7,1.5l-1.4,6.2l-4.7-0.6L124.4,622.9z M144.3,642.6v-2.8c-1-0.1-2.1-0.1-3.2-0.2c-1.1-0.1-2.3-0.2-3.5-0.2
			c-2.7,0-5.1,0.4-7.3,1.3c-2.2,0.8-3.3,2.7-3.3,5.5c0,2.3,0.7,3.9,2.2,4.8c1.5,0.9,3,1.3,4.5,1.3c2.5,0,4.8-0.9,7-2.6
			C142.9,647.9,144.1,645.6,144.3,642.6z"/>
		<path id="XMLID_44_" class="st2" d="M179.9,619.5c2.6,0,4.6,0.6,6.2,1.9l1.4,9.1l-4.6,0.6l-1.4-6.2c-0.9-0.3-1.8-0.5-2.8-0.5
			c-2.1,0-3.9,0.9-5.3,2.6c-1.4,1.8-2.1,4-2.1,6.8v17.7h8.3v4.6h-20.3v-4.6h6.3v-26.8h-6.5v-4.6H171v6.5c0.7-2,1.8-3.7,3.4-5.1
			C176.1,620.2,177.9,619.5,179.9,619.5z"/>
		<path id="XMLID_47_" class="st2" d="M212,656.1h-18.3v-4.6h6.3v-26.8h-6.5v-4.6h12.1v31.4h6.3L212,656.1L212,656.1z M199.4,610.8
			v-7.4h6.2v7.4H199.4z"/>
		<path id="XMLID_50_" class="st2" d="M220.2,622.9c1.9-1.2,3.9-2.1,6-2.7c2.1-0.5,4.3-0.8,6.7-0.8c8.6,0,12.9,4,12.9,12.1v17.2
			c0,2.6,1,3.9,3.1,3.9c0.9,0,1.7-0.2,2.4-0.5l0.1,3.7c-1.5,0.8-3,1.2-4.7,1.2c-4.3,0-6.4-2.4-6.6-7.3v-0.2
			c-1.1,1.9-2.7,3.7-4.8,5.2s-4.6,2.3-7.5,2.3c-2.4,0-4.8-0.7-7.2-2.2c-2.5-1.5-3.7-4.1-3.7-7.9c0-4.5,1.8-7.5,5.4-8.9
			c3.6-1.4,7.4-2.1,11.5-2.1c1.1,0,2.2,0,3.3,0.1c1.1,0.1,2.1,0.1,3.1,0.2V633c0-2.6-0.6-4.7-1.7-6.3c-1.1-1.6-3.3-2.4-6.5-2.4
			c-2.6,0-5,0.5-7,1.5l-1.4,6.2l-4.7-0.6L220.2,622.9z M240.1,642.6v-2.8c-1-0.1-2.1-0.1-3.2-0.2c-1.1-0.1-2.3-0.2-3.5-0.2
			c-2.7,0-5.1,0.4-7.3,1.3c-2.2,0.8-3.3,2.7-3.3,5.5c0,2.3,0.7,3.9,2.2,4.8c1.5,0.9,3,1.3,4.5,1.3c2.5,0,4.8-0.9,7-2.6
			C238.7,647.9,239.9,645.6,240.1,642.6z"/>
		<path id="XMLID_53_" class="st0" d="M314.4,618.7l-5.3,0.6l-1.6-10.5H287v20.5h24.2v5.2H287V651h9.3v5.2h-21.9V651h6.6v-42.3h-6.6
			v-5.2h38.2L314.4,618.7z"/>
		<path id="XMLID_59_" class="st0" d="M349.8,645.8c-0.5,3.1-2,5.7-4.6,7.9c-2.6,2.2-6.1,3.3-10.5,3.3c-5.1,0-9.2-1.6-12.3-4.8
			c-3.1-3.2-4.7-7.7-4.7-13.5c0-5.6,1.5-10.2,4.5-13.8c3-3.6,7-5.4,12.1-5.4c5,0,8.7,1.6,11.3,4.7c2.6,3.1,3.9,6.8,4,11.1
			c0,1.4-0.2,2.8-0.5,4.3h-25.3c0.3,8.4,4.1,12.6,11.4,12.6c2.9,0,5.1-0.7,6.7-2s2.7-3.1,3.2-5.3L349.8,645.8z M343.5,635.3
			c0.3-2.7-0.4-5.2-1.9-7.6c-1.5-2.4-4.1-3.6-7.6-3.6c-3.3,0-5.8,1.1-7.4,3.3s-2.5,4.8-2.9,7.9L343.5,635.3L343.5,635.3z"/>
		<path id="XMLID_69_" class="st0" d="M375.7,619.5c2.6,0,4.6,0.6,6.2,1.9l1.4,9.1l-4.6,0.6l-1.4-6.2c-0.9-0.3-1.8-0.5-2.8-0.5
			c-2.1,0-3.9,0.9-5.3,2.6c-1.4,1.8-2.1,4-2.1,6.8v17.7h8.3v4.6h-20.3v-4.6h6.3v-26.8h-6.5v-4.6h11.8v6.5c0.7-2,1.8-3.7,3.4-5.1
			C371.8,620.2,373.6,619.5,375.7,619.5z"/>
		<path id="XMLID_71_" class="st0" d="M432.3,656.1h-18.2v-4.6h6.2v-16.8c0-3.9-0.8-6.6-2.3-8.2c-1.6-1.6-3.6-2.4-6-2.4
			c-3.2,0-5.8,1.1-7.8,3.2c-2,2.1-3,4.6-3.1,7.3v16.8h6.3v4.6h-18.3v-4.6h6.3v-26.8h-6.5V620H401v6.4c2.6-4.7,6.8-7.1,12.6-7.1
			c3.5,0,6.4,1.1,8.8,3.2c2.4,2.2,3.6,5.6,3.6,10.4v18.5h6.2L432.3,656.1L432.3,656.1z"/>
		<path id="XMLID_73_" class="st0" d="M439.6,622.9c1.9-1.2,3.9-2.1,6-2.7c2.1-0.5,4.3-0.8,6.7-0.8c8.6,0,12.9,4,12.9,12.1v17.2
			c0,2.6,1,3.9,3.1,3.9c0.9,0,1.7-0.2,2.4-0.5l0.1,3.7c-1.5,0.8-3,1.2-4.7,1.2c-4.3,0-6.4-2.4-6.6-7.3v-0.2
			c-1.1,1.9-2.7,3.7-4.8,5.2c-2.1,1.5-4.6,2.3-7.5,2.3c-2.4,0-4.8-0.7-7.2-2.2c-2.5-1.5-3.7-4.1-3.7-7.9c0-4.5,1.8-7.5,5.4-8.9
			c3.6-1.4,7.4-2.1,11.5-2.1c1.1,0,2.2,0,3.3,0.1c1.1,0.1,2.1,0.1,3.1,0.2V633c0-2.6-0.6-4.7-1.7-6.3c-1.1-1.6-3.3-2.4-6.5-2.4
			c-2.6,0-5,0.5-7,1.5L443,632l-4.7-0.6L439.6,622.9z M459.5,642.6v-2.8c-1-0.1-2.1-0.1-3.2-0.2c-1.1-0.1-2.3-0.2-3.5-0.2
			c-2.7,0-5.1,0.4-7.3,1.3c-2.2,0.8-3.3,2.7-3.3,5.5c0,2.3,0.7,3.9,2.2,4.8c1.5,0.9,3,1.3,4.5,1.3c2.5,0,4.8-0.9,7-2.6
			C458.1,647.9,459.3,645.6,459.5,642.6z"/>
		<path id="XMLID_76_" class="st0" d="M517.8,656.1h-18.2v-4.6h6.2v-16.8c0-3.9-0.8-6.6-2.3-8.2c-1.6-1.6-3.6-2.4-6-2.4
			c-3.2,0-5.8,1.1-7.8,3.2c-2,2.1-3,4.6-3.1,7.3v16.8h6.3v4.6h-18.3v-4.6h6.3v-26.8h-6.5V620h12.1v6.4c2.6-4.7,6.8-7.1,12.6-7.1
			c3.5,0,6.4,1.1,8.8,3.2c2.4,2.2,3.6,5.6,3.6,10.4v18.5h6.2L517.8,656.1L517.8,656.1z"/>
		<path id="XMLID_78_" class="st0" d="M561.8,656.1h-11.9v-7.3c-1.2,2.2-2.8,4-4.9,5.7c-2.1,1.6-4.7,2.4-8,2.4
			c-4.6,0-8.4-1.6-11.2-4.7c-2.8-3.2-4.2-7.5-4.2-13.2c0-4.8,1.2-9.3,3.7-13.4c2.5-4.2,6.7-6.2,12.5-6.2c5.6,0,9.6,2.2,12.1,6.6
			v-20.9h-8.7v-4.6h14.4v51.1h6.2L561.8,656.1L561.8,656.1z M549.9,640.2v-5.7c-0.1-3-1.2-5.5-3.3-7.4c-2.1-1.9-4.6-2.8-7.4-2.8
			c-4,0-6.9,1.5-8.8,4.4c-1.9,2.9-2.8,6.3-2.8,10c0,4.4,1,7.8,3.1,10c2.1,2.3,4.7,3.4,7.8,3.4c3.2,0,5.9-1.3,8.1-3.9
			C548.7,645.6,549.8,642.9,549.9,640.2z"/>
		<path id="XMLID_81_" class="st0" d="M569.5,622.9c1.9-1.2,3.9-2.1,6-2.7c2.1-0.5,4.3-0.8,6.7-0.8c8.6,0,12.9,4,12.9,12.1v17.2
			c0,2.6,1,3.9,3.1,3.9c0.9,0,1.7-0.2,2.4-0.5l0.1,3.7c-1.5,0.8-3,1.2-4.7,1.2c-4.3,0-6.4-2.4-6.6-7.3v-0.2
			c-1.1,1.9-2.7,3.7-4.8,5.2s-4.6,2.3-7.5,2.3c-2.4,0-4.8-0.7-7.2-2.2c-2.5-1.5-3.7-4.1-3.7-7.9c0-4.5,1.8-7.5,5.4-8.9
			c3.6-1.4,7.4-2.1,11.5-2.1c1.1,0,2.2,0,3.3,0.1c1.1,0.1,2.1,0.1,3.1,0.2V633c0-2.6-0.6-4.7-1.7-6.3c-1.1-1.6-3.3-2.4-6.5-2.4
			c-2.6,0-5,0.5-7,1.5l-1.4,6.2l-4.7-0.6L569.5,622.9z M589.4,642.6v-2.8c-1-0.1-2.1-0.1-3.2-0.2c-1.1-0.1-2.3-0.2-3.5-0.2
			c-2.7,0-5.1,0.4-7.3,1.3c-2.2,0.8-3.3,2.7-3.3,5.5c0,2.3,0.7,3.9,2.2,4.8c1.5,0.9,3,1.3,4.5,1.3c2.5,0,4.8-0.9,7-2.6
			C588,647.9,589.2,645.6,589.4,642.6z"/>
		<path id="XMLID_84_" class="st1" d="M667,652.1c-4.2,3.2-10.1,4.9-17.6,4.9c-7.7,0-13.9-2.5-18.6-7.6c-4.7-5.1-7.1-11.5-7.1-19.1
			c0-4.9,1-9.4,3.1-13.6c2-4.2,4.9-7.5,8.7-10.1c3.7-2.5,8.1-3.8,13.3-3.8c4.4,0,8,0.6,11,1.7c2.9,1.1,5.5,2.6,7.6,4.5l1.5,10.1
			l-5.1,0.5l-1.5-7.7c-1.7-1.1-3.6-2-5.6-2.7c-2-0.7-4.5-1-7.4-1c-5.8,0-10.4,2.1-14,6.2c-3.5,4.1-5.3,9.3-5.3,15.7
			c0,6.5,1.8,11.8,5.5,15.7s8.6,5.9,14.9,5.9c4.6,0,8.4-0.8,11.6-2.3l1.5-7.8l5,0.5L667,652.1z"/>
		<path id="XMLID_86_" class="st1" d="M711.3,638.1c0,5.5-1.6,10-4.9,13.5c-3.2,3.6-7.6,5.3-13.2,5.3c-5.5,0-9.7-1.7-12.8-5.2
			s-4.7-7.9-4.7-13.4c0-5.2,1.5-9.7,4.5-13.5c3-3.7,7.4-5.6,13.3-5.6c5.9,0,10.3,1.8,13.3,5.5C709.8,628.6,711.3,633,711.3,638.1z
			 M705.3,638c0-4.1-1-7.4-3.1-10s-5-3.8-8.8-3.8s-6.7,1.3-8.7,4c-2,2.6-3,6-3,10c0,3.9,1,7.3,3,10s4.9,4,8.7,4s6.8-1.3,8.8-4
			C704.2,645.4,705.3,642.1,705.3,638z"/>
		<path id="XMLID_89_" class="st1" d="M737.2,619.5c2.6,0,4.6,0.6,6.2,1.9l1.4,9.1l-4.6,0.6l-1.4-6.2c-0.9-0.3-1.8-0.5-2.8-0.5
			c-2.1,0-3.9,0.9-5.3,2.6c-1.4,1.8-2.1,4-2.1,6.8v17.7h8.3v4.6h-20.3v-4.6h6.3v-26.8h-6.5v-4.6h11.8v6.5c0.7-2,1.8-3.7,3.4-5.1
			C733.4,620.2,735.2,619.5,737.2,619.5z"/>
		<path id="XMLID_91_" class="st1" d="M791.5,656.1h-11.9v-7.3c-1.2,2.2-2.8,4-4.9,5.7c-2.1,1.6-4.7,2.4-8,2.4
			c-4.6,0-8.4-1.6-11.2-4.7c-2.8-3.2-4.2-7.5-4.2-13.2c0-4.8,1.2-9.3,3.7-13.4c2.5-4.2,6.7-6.2,12.5-6.2c5.6,0,9.6,2.2,12.1,6.6
			v-20.9h-8.7v-4.6h14.4v51.1h6.2L791.5,656.1L791.5,656.1z M779.6,640.2v-5.7c-0.1-3-1.2-5.5-3.3-7.4c-2.1-1.9-4.6-2.8-7.4-2.8
			c-4,0-6.9,1.5-8.8,4.4c-1.9,2.9-2.8,6.3-2.8,10c0,4.4,1,7.8,3.1,10c2.1,2.3,4.7,3.4,7.8,3.4c3.2,0,5.9-1.3,8.1-3.9
			C778.4,645.6,779.5,642.9,779.6,640.2z"/>
		<path id="XMLID_94_" class="st1" d="M831.2,638.1c0,5.5-1.6,10-4.9,13.5c-3.2,3.6-7.6,5.3-13.2,5.3c-5.5,0-9.7-1.7-12.8-5.2
			s-4.7-7.9-4.7-13.4c0-5.2,1.5-9.7,4.5-13.5c3-3.7,7.4-5.6,13.3-5.6c5.9,0,10.3,1.8,13.3,5.5C829.7,628.6,831.2,633,831.2,638.1z
			 M825.2,638c0-4.1-1-7.4-3.1-10s-5-3.8-8.8-3.8s-6.7,1.3-8.7,4c-2,2.6-3,6-3,10c0,3.9,1,7.3,3,10s4.9,4,8.7,4s6.8-1.3,8.8-4
			C824.2,645.4,825.2,642.1,825.2,638z"/>
		<path id="XMLID_97_" class="st1" d="M874.4,637.2c0,3.2-0.5,6.3-1.6,9.3s-2.8,5.5-5.2,7.5s-5.5,3-9.2,3c-6,0-10.3-2.3-12.6-6.8
			l-0.8,6h-5.7c0.2-1.6,0.5-3.3,0.7-5.1c0.3-1.8,0.4-3.6,0.4-5.4v-40.6h-6.2v-4.6H846v27.1c1.1-2.2,2.6-4.1,4.7-5.7
			c2-1.6,4.8-2.4,8.2-2.4c4.5,0,8.2,1.5,11.1,4.6C872.9,627.1,874.4,631.5,874.4,637.2z M868.4,637.8c0-4.5-1.1-7.9-3.2-10.1
			c-2.1-2.3-4.7-3.4-7.7-3.4c-3.5,0-6.2,1.3-8.3,3.8s-3.1,5.1-3.2,7.8v5.4c0,3,1.1,5.6,3.2,7.7c2.1,2.1,4.8,3.2,7.9,3.2
			c3.9,0,6.8-1.5,8.6-4.4C867.5,644.8,868.4,641.5,868.4,637.8z"/>
		<path id="XMLID_100_" class="st1" d="M912.6,645.8c-0.5,3.1-2,5.7-4.6,7.9c-2.6,2.2-6.1,3.3-10.5,3.3c-5.1,0-9.2-1.6-12.3-4.8
			c-3.1-3.2-4.7-7.7-4.7-13.5c0-5.6,1.5-10.2,4.5-13.8c3-3.6,7-5.4,12.1-5.4c5,0,8.7,1.6,11.3,4.7s3.9,6.8,4,11.1
			c0,1.4-0.2,2.8-0.5,4.3h-25.3c0.3,8.4,4.1,12.6,11.4,12.6c2.9,0,5.1-0.7,6.7-2c1.6-1.3,2.7-3.1,3.2-5.3L912.6,645.8z M906.3,635.3
			c0.3-2.7-0.4-5.2-1.9-7.6c-1.5-2.4-4.1-3.6-7.6-3.6c-3.3,0-5.8,1.1-7.4,3.3c-1.6,2.2-2.5,4.8-2.9,7.9L906.3,635.3L906.3,635.3z
			 M909.6,605.6l-13.9,8.4l-1.8-2.5l12.5-10.7L909.6,605.6z"/>
		<path id="XMLID_104_" class="st1" d="M947.8,645.7c0,3.5-1.5,6.3-4.4,8.3s-6.6,3-10.9,3c-2.5,0-5.1-0.3-7.6-1s-4.5-1.5-6.1-2.5
			l1.1-8.2l4.5,0.5l-0.2,4.8c2.5,1.2,5.2,1.8,8,1.8c2.5,0,4.8-0.5,6.8-1.5s3-2.5,3-4.6c0-2-0.8-3.4-2.3-4.2
			c-1.5-0.8-3.4-1.4-5.6-1.8c-2.2-0.4-4.5-0.8-6.8-1.4c-2.3-0.5-4.2-1.5-5.7-2.8s-2.3-3.4-2.3-6.2c0-3.8,1.4-6.5,4.2-8.1
			c2.8-1.6,5.9-2.3,9.1-2.3c2.5,0,4.8,0.3,7,1c2.2,0.6,4,1.4,5.5,2.3l0.9,8.4l-4.7,0.6l-0.9-5.8c-2.3-1.2-4.7-1.8-7.4-1.8
			c-2.3,0-4.1,0.4-5.6,1.3c-1.5,0.9-2.2,2.2-2.2,4c0,1.9,0.8,3.2,2.3,4c1.5,0.8,3.4,1.3,5.6,1.7c2.2,0.4,4.4,0.8,6.6,1.3
			c2.2,0.5,4.1,1.5,5.6,2.9C947,640.7,947.8,642.8,947.8,645.7z"/>
	</g>
	<path id="XMLID_6_" d="M396.6,505.3v-17.4c0-11-1.4-19.7-4.3-26c-5-11-14.3-17.4-27.9-19.1h-17.8v6.4c13.5,1.5,22.6,6.6,27.4,15.4
		c2.6,4.8,3.9,11.4,3.9,19.8v23.7c0,15.2,4.5,26.1,13.4,32.7c8.9,6.6,20.2,10.6,33.9,12v-13.5c-7.1-0.8-13.7-3.8-19.7-8.8
		C399.6,525.6,396.6,517.2,396.6,505.3z"/>
	<path id="XMLID_8_" class="st2" d="M626.4,444.8c-13.5,1.7-22.8,8.1-27.8,19.1c-2.8,6.3-4.3,15-4.3,26v17.4
		c0,10.7-2.7,18.7-8.2,24.2c-5.4,5.5-12.3,8.8-20.5,9.8v13.5c13.6-1.5,24.8-5.4,33.8-11.9c8.9-6.4,13.4-17.4,13.4-32.9v-23.7
		c0-8.2,1.3-14.8,3.9-19.7c4.8-9,14-14.2,27.5-15.5v-6.4L626.4,444.8L626.4,444.8z"/>
</g>
</svg>
