<?xml version="1.0" encoding="utf-8"?>
<!-- Generator: Adobe Illustrator 19.0.0, SVG Export Plug-In . SVG Version: 6.00 Build 0)  -->
<svg version="1.1" id="Layer_1" xmlns="http://www.w3.org/2000/svg" xmlns:xlink="http://www.w3.org/1999/xlink" x="0px" y="0px"
	 viewBox="0 0 1000 399" style="enable-background:new 0 0 1000 399;" xml:space="preserve">
<style type="text/css">
	.st0{fill:#464C5B;}
	.st1{fill:#894A90;}
	.st2{fill:#B0DDD1;}
</style>
<g id="XMLID_18_">
	<g id="XMLID_1_">
		<path id="XMLID_32_" class="st0" d="M115.4,307.7h-6.9V350h6.6v5.2H96.4V350h6.2v-33.5h-0.3l-17.6,36h-3.2l-18.1-36.3h-0.3V350
			h6.3v5.2H50.7V350h6.6v-42.3h-6.9v-5.2h12.1L83,343.7h0.3l19.9-41.2h12.1V307.7z"/>
		<path id="XMLID_37_" class="st0" d="M124.4,321.9c1.9-1.2,3.9-2.1,6-2.7c2.1-0.5,4.3-0.8,6.7-0.8c8.6,0,12.9,4,12.9,12.1v17.2
			c0,2.6,1,3.9,3.1,3.9c0.9,0,1.7-0.2,2.4-0.5l0.1,3.7c-1.5,0.8-3,1.2-4.7,1.2c-4.3,0-6.4-2.4-6.6-7.3v-0.2
			c-1.1,1.9-2.7,3.7-4.8,5.2c-2.1,1.5-4.6,2.3-7.5,2.3c-2.4,0-4.8-0.7-7.2-2.2c-2.5-1.5-3.7-4.1-3.7-7.9c0-4.5,1.8-7.5,5.4-8.9
			c3.6-1.4,7.4-2.1,11.5-2.1c1.1,0,2.2,0,3.3,0.1c1.1,0.1,2.1,0.1,3.1,0.2v-3.2c0-2.6-0.6-4.7-1.7-6.3c-1.1-1.6-3.3-2.4-6.5-2.4
			c-2.6,0-5,0.5-7,1.5l-1.4,6.2l-4.7-0.6L124.4,321.9z M144.3,341.6v-2.8c-1-0.1-2.1-0.1-3.2-0.2c-1.1-0.1-2.3-0.2-3.5-0.2
			c-2.7,0-5.1,0.4-7.3,1.3c-2.2,0.8-3.3,2.7-3.3,5.5c0,2.3,0.7,3.9,2.2,4.8c1.5,0.9,3,1.3,4.5,1.3c2.5,0,4.8-0.9,7-2.6
			C142.9,346.9,144.1,344.6,144.3,341.6z"/>
		<path id="XMLID_44_" class="st0" d="M179.9,318.5c2.6,0,4.6,0.6,6.2,1.9l1.4,9.1l-4.6,0.6l-1.4-6.2c-0.9-0.3-1.8-0.5-2.8-0.5
			c-2.1,0-3.9,0.9-5.3,2.6c-1.4,1.8-2.1,4-2.1,6.8v17.7h8.3v4.6h-20.3v-4.6h6.3v-26.8h-6.5v-4.6H171v6.5c0.7-2,1.8-3.7,3.4-5.1
			C176.1,319.2,177.9,318.5,179.9,318.5z"/>
		<path id="XMLID_47_" class="st0" d="M212,355.1h-18.3v-4.6h6.3v-26.8h-6.5v-4.6h12.1v31.4h6.3V355.1z M199.4,309.8v-7.4h6.2v7.4
			H199.4z"/>
		<path id="XMLID_50_" class="st0" d="M220.2,321.9c1.9-1.2,3.9-2.1,6-2.7c2.1-0.5,4.3-0.8,6.7-0.8c8.6,0,12.9,4,12.9,12.1v17.2
			c0,2.6,1,3.9,3.1,3.9c0.9,0,1.7-0.2,2.4-0.5l0.1,3.7c-1.5,0.8-3,1.2-4.7,1.2c-4.3,0-6.4-2.4-6.6-7.3v-0.2
			c-1.1,1.9-2.7,3.7-4.8,5.2c-2.1,1.5-4.6,2.3-7.5,2.3c-2.4,0-4.8-0.7-7.2-2.2c-2.5-1.5-3.7-4.1-3.7-7.9c0-4.5,1.8-7.5,5.4-8.9
			c3.6-1.4,7.4-2.1,11.5-2.1c1.1,0,2.2,0,3.3,0.1c1.1,0.1,2.1,0.1,3.1,0.2v-3.2c0-2.6-0.6-4.7-1.7-6.3c-1.1-1.6-3.3-2.4-6.5-2.4
			c-2.6,0-5,0.5-7,1.5l-1.4,6.2l-4.7-0.6L220.2,321.9z M240.1,341.6v-2.8c-1-0.1-2.1-0.1-3.2-0.2c-1.1-0.1-2.3-0.2-3.5-0.2
			c-2.7,0-5.1,0.4-7.3,1.3c-2.2,0.8-3.3,2.7-3.3,5.5c0,2.3,0.7,3.9,2.2,4.8c1.5,0.9,3,1.3,4.5,1.3c2.5,0,4.8-0.9,7-2.6
			C238.7,346.9,239.9,344.6,240.1,341.6z"/>
		<path id="XMLID_53_" class="st1" d="M314.4,317.7l-5.3,0.6l-1.6-10.5H287v20.5h24.2v5.2H287V350h9.3v5.2h-21.9V350h6.6v-42.3h-6.6
			v-5.2h38.2L314.4,317.7z"/>
		<path id="XMLID_59_" class="st1" d="M349.8,344.8c-0.5,3.1-2,5.7-4.6,7.9c-2.6,2.2-6.1,3.3-10.5,3.3c-5.1,0-9.2-1.6-12.3-4.8
			c-3.1-3.2-4.7-7.7-4.7-13.5c0-5.6,1.5-10.2,4.5-13.8c3-3.6,7-5.4,12.1-5.4c5,0,8.7,1.6,11.3,4.7c2.6,3.1,3.9,6.8,4,11.1
			c0,1.4-0.2,2.8-0.5,4.3h-25.3c0.3,8.4,4.1,12.6,11.4,12.6c2.9,0,5.1-0.7,6.7-2c1.6-1.3,2.7-3.1,3.2-5.3L349.8,344.8z M343.5,334.3
			c0.3-2.7-0.4-5.2-1.9-7.6c-1.5-2.4-4.1-3.6-7.6-3.6c-3.3,0-5.8,1.1-7.4,3.3c-1.6,2.2-2.5,4.8-2.9,7.9H343.5z"/>
		<path id="XMLID_69_" class="st1" d="M375.7,318.5c2.6,0,4.6,0.6,6.2,1.9l1.4,9.1l-4.6,0.6l-1.4-6.2c-0.9-0.3-1.8-0.5-2.8-0.5
			c-2.1,0-3.9,0.9-5.3,2.6c-1.4,1.8-2.1,4-2.1,6.8v17.7h8.3v4.6h-20.3v-4.6h6.3v-26.8h-6.5v-4.6h11.8v6.5c0.7-2,1.8-3.7,3.4-5.1
			C371.8,319.2,373.6,318.5,375.7,318.5z"/>
		<path id="XMLID_71_" class="st1" d="M432.3,355.1h-18.2v-4.6h6.2v-16.8c0-3.9-0.8-6.6-2.3-8.2c-1.6-1.6-3.6-2.4-6-2.4
			c-3.2,0-5.8,1.1-7.8,3.2c-2,2.1-3,4.6-3.1,7.3v16.8h6.3v4.6h-18.3v-4.6h6.3v-26.8h-6.5v-4.6h12.1v6.4c2.6-4.7,6.8-7.1,12.6-7.1
			c3.5,0,6.4,1.1,8.8,3.2c2.4,2.2,3.6,5.6,3.6,10.4v18.5h6.2V355.1z"/>
		<path id="XMLID_73_" class="st1" d="M439.6,321.9c1.9-1.2,3.9-2.1,6-2.7c2.1-0.5,4.3-0.8,6.7-0.8c8.6,0,12.9,4,12.9,12.1v17.2
			c0,2.6,1,3.9,3.1,3.9c0.9,0,1.7-0.2,2.4-0.5l0.1,3.7c-1.5,0.8-3,1.2-4.7,1.2c-4.3,0-6.4-2.4-6.6-7.3v-0.2
			c-1.1,1.9-2.7,3.7-4.8,5.2c-2.1,1.5-4.6,2.3-7.5,2.3c-2.4,0-4.8-0.7-7.2-2.2c-2.5-1.5-3.7-4.1-3.7-7.9c0-4.5,1.8-7.5,5.4-8.9
			c3.6-1.4,7.4-2.1,11.5-2.1c1.1,0,2.2,0,3.3,0.1c1.1,0.1,2.1,0.1,3.1,0.2v-3.2c0-2.6-0.6-4.7-1.7-6.3c-1.1-1.6-3.3-2.4-6.5-2.4
			c-2.6,0-5,0.5-7,1.5l-1.4,6.2l-4.7-0.6L439.6,321.9z M459.5,341.6v-2.8c-1-0.1-2.1-0.1-3.2-0.2c-1.1-0.1-2.3-0.2-3.5-0.2
			c-2.7,0-5.1,0.4-7.3,1.3c-2.2,0.8-3.3,2.7-3.3,5.5c0,2.3,0.7,3.9,2.2,4.8c1.5,0.9,3,1.3,4.5,1.3c2.5,0,4.8-0.9,7-2.6
			C458.1,346.9,459.3,344.6,459.5,341.6z"/>
		<path id="XMLID_76_" class="st1" d="M517.8,355.1h-18.2v-4.6h6.2v-16.8c0-3.9-0.8-6.6-2.3-8.2c-1.6-1.6-3.6-2.4-6-2.4
			c-3.2,0-5.8,1.1-7.8,3.2c-2,2.1-3,4.6-3.1,7.3v16.8h6.3v4.6h-18.3v-4.6h6.3v-26.8h-6.5v-4.6h12.1v6.4c2.6-4.7,6.8-7.1,12.6-7.1
			c3.5,0,6.4,1.1,8.8,3.2c2.4,2.2,3.6,5.6,3.6,10.4v18.5h6.2V355.1z"/>
		<path id="XMLID_78_" class="st1" d="M561.8,355.1h-11.9v-7.3c-1.2,2.2-2.8,4-4.9,5.7c-2.1,1.6-4.7,2.4-8,2.4
			c-4.6,0-8.4-1.6-11.2-4.7c-2.8-3.2-4.2-7.5-4.2-13.2c0-4.8,1.2-9.3,3.7-13.4c2.5-4.2,6.7-6.2,12.5-6.2c5.6,0,9.6,2.2,12.1,6.6
			v-20.9h-8.7v-4.6h14.4v51.1h6.2V355.1z M549.9,339.2v-5.7c-0.1-3-1.2-5.5-3.3-7.4c-2.1-1.9-4.6-2.8-7.4-2.8c-4,0-6.9,1.5-8.8,4.4
			c-1.9,2.9-2.8,6.3-2.8,10c0,4.4,1,7.8,3.1,10c2.1,2.3,4.7,3.4,7.8,3.4c3.2,0,5.9-1.3,8.1-3.9C548.7,344.6,549.8,341.9,549.9,339.2
			z"/>
		<path id="XMLID_81_" class="st1" d="M569.5,321.9c1.9-1.2,3.9-2.1,6-2.7c2.1-0.5,4.3-0.8,6.7-0.8c8.6,0,12.9,4,12.9,12.1v17.2
			c0,2.6,1,3.9,3.1,3.9c0.9,0,1.7-0.2,2.4-0.5l0.1,3.7c-1.5,0.8-3,1.2-4.7,1.2c-4.3,0-6.4-2.4-6.6-7.3v-0.2
			c-1.1,1.9-2.7,3.7-4.8,5.2c-2.1,1.5-4.6,2.3-7.5,2.3c-2.4,0-4.8-0.7-7.2-2.2c-2.5-1.5-3.7-4.1-3.7-7.9c0-4.5,1.8-7.5,5.4-8.9
			c3.6-1.4,7.4-2.1,11.5-2.1c1.1,0,2.2,0,3.3,0.1c1.1,0.1,2.1,0.1,3.1,0.2v-3.2c0-2.6-0.6-4.7-1.7-6.3c-1.1-1.6-3.3-2.4-6.5-2.4
			c-2.6,0-5,0.5-7,1.5l-1.4,6.2l-4.7-0.6L569.5,321.9z M589.4,341.6v-2.8c-1-0.1-2.1-0.1-3.2-0.2c-1.1-0.1-2.3-0.2-3.5-0.2
			c-2.7,0-5.1,0.4-7.3,1.3c-2.2,0.8-3.3,2.7-3.3,5.5c0,2.3,0.7,3.9,2.2,4.8c1.5,0.9,3,1.3,4.5,1.3c2.5,0,4.8-0.9,7-2.6
			C588,346.9,589.2,344.6,589.4,341.6z"/>
		<path id="XMLID_84_" class="st2" d="M667,351.1c-4.2,3.2-10.1,4.9-17.6,4.9c-7.7,0-13.9-2.5-18.6-7.6c-4.7-5.1-7.1-11.5-7.1-19.1
			c0-4.9,1-9.4,3.1-13.6c2-4.2,4.9-7.5,8.7-10.1c3.7-2.5,8.1-3.8,13.3-3.8c4.4,0,8,0.6,11,1.7c2.9,1.1,5.5,2.6,7.6,4.5l1.5,10.1
			l-5.1,0.5l-1.5-7.7c-1.7-1.1-3.6-2-5.6-2.7c-2-0.7-4.5-1-7.4-1c-5.8,0-10.4,2.1-14,6.2c-3.5,4.1-5.3,9.3-5.3,15.7
			c0,6.5,1.8,11.8,5.5,15.7s8.6,5.9,14.9,5.9c4.6,0,8.4-0.8,11.6-2.3l1.5-7.8l5,0.5L667,351.1z"/>
		<path id="XMLID_86_" class="st2" d="M711.3,337.1c0,5.5-1.6,10-4.9,13.5c-3.2,3.6-7.6,5.3-13.2,5.3c-5.5,0-9.7-1.7-12.8-5.2
			c-3.1-3.5-4.7-7.9-4.7-13.4c0-5.2,1.5-9.7,4.5-13.5c3-3.7,7.4-5.6,13.3-5.6c5.9,0,10.3,1.8,13.3,5.5
			C709.8,327.6,711.3,332,711.3,337.1z M705.3,337c0-4.1-1-7.4-3.1-10c-2.1-2.6-5-3.8-8.8-3.8c-3.8,0-6.7,1.3-8.7,4c-2,2.6-3,6-3,10
			c0,3.9,1,7.3,3,10c2,2.7,4.9,4,8.7,4c3.8,0,6.8-1.3,8.8-4C704.2,344.4,705.3,341.1,705.3,337z"/>
		<path id="XMLID_89_" class="st2" d="M737.2,318.5c2.6,0,4.6,0.6,6.2,1.9l1.4,9.1l-4.6,0.6l-1.4-6.2c-0.9-0.3-1.8-0.5-2.8-0.5
			c-2.1,0-3.9,0.9-5.3,2.6c-1.4,1.8-2.1,4-2.1,6.8v17.7h8.3v4.6h-20.3v-4.6h6.3v-26.8h-6.5v-4.6h11.8v6.5c0.7-2,1.8-3.7,3.4-5.1
			C733.4,319.2,735.2,318.5,737.2,318.5z"/>
		<path id="XMLID_91_" class="st2" d="M791.5,355.1h-11.9v-7.3c-1.2,2.2-2.8,4-4.9,5.7c-2.1,1.6-4.7,2.4-8,2.4
			c-4.6,0-8.4-1.6-11.2-4.7c-2.8-3.2-4.2-7.5-4.2-13.2c0-4.8,1.2-9.3,3.7-13.4c2.5-4.2,6.7-6.2,12.5-6.2c5.6,0,9.6,2.2,12.1,6.6
			v-20.9h-8.7v-4.6h14.4v51.1h6.2V355.1z M779.6,339.2v-5.7c-0.1-3-1.2-5.5-3.3-7.4c-2.1-1.9-4.6-2.8-7.4-2.8c-4,0-6.9,1.5-8.8,4.4
			c-1.9,2.9-2.8,6.3-2.8,10c0,4.4,1,7.8,3.1,10c2.1,2.3,4.7,3.4,7.8,3.4c3.2,0,5.9-1.3,8.1-3.9C778.4,344.6,779.5,341.9,779.6,339.2
			z"/>
		<path id="XMLID_94_" class="st2" d="M831.2,337.1c0,5.5-1.6,10-4.9,13.5c-3.2,3.6-7.6,5.3-13.2,5.3c-5.5,0-9.7-1.7-12.8-5.2
			c-3.1-3.5-4.7-7.9-4.7-13.4c0-5.2,1.5-9.7,4.5-13.5c3-3.7,7.4-5.6,13.3-5.6c5.9,0,10.3,1.8,13.3,5.5
			C829.7,327.6,831.2,332,831.2,337.1z M825.2,337c0-4.1-1-7.4-3.1-10c-2.1-2.6-5-3.8-8.8-3.8c-3.8,0-6.7,1.3-8.7,4c-2,2.6-3,6-3,10
			c0,3.9,1,7.3,3,10c2,2.7,4.9,4,8.7,4c3.8,0,6.8-1.3,8.8-4C824.2,344.4,825.2,341.1,825.2,337z"/>
		<path id="XMLID_97_" class="st2" d="M874.4,336.2c0,3.2-0.5,6.3-1.6,9.3c-1.1,3-2.8,5.5-5.2,7.5c-2.4,2-5.5,3-9.2,3
			c-6,0-10.3-2.3-12.6-6.8l-0.8,6h-5.7c0.2-1.6,0.5-3.3,0.7-5.1c0.3-1.8,0.4-3.6,0.4-5.4v-40.6h-6.2v-4.6H846v27.1
			c1.1-2.2,2.6-4.1,4.7-5.7c2-1.6,4.8-2.4,8.2-2.4c4.5,0,8.2,1.5,11.1,4.6C872.9,326.1,874.4,330.5,874.4,336.2z M868.4,336.8
			c0-4.5-1.1-7.9-3.2-10.1c-2.1-2.3-4.7-3.4-7.7-3.4c-3.5,0-6.2,1.3-8.3,3.8c-2.1,2.5-3.1,5.1-3.2,7.8v5.4c0,3,1.1,5.6,3.2,7.7
			c2.1,2.1,4.8,3.2,7.9,3.2c3.9,0,6.8-1.5,8.6-4.4C867.5,343.8,868.4,340.5,868.4,336.8z"/>
		<path id="XMLID_100_" class="st2" d="M912.6,344.8c-0.5,3.1-2,5.7-4.6,7.9c-2.6,2.2-6.1,3.3-10.5,3.3c-5.1,0-9.2-1.6-12.3-4.8
			c-3.1-3.2-4.7-7.7-4.7-13.5c0-5.6,1.5-10.2,4.5-13.8c3-3.6,7-5.4,12.1-5.4c5,0,8.7,1.6,11.3,4.7c2.6,3.1,3.9,6.8,4,11.1
			c0,1.4-0.2,2.8-0.5,4.3h-25.3c0.3,8.4,4.1,12.6,11.4,12.6c2.9,0,5.1-0.7,6.7-2c1.6-1.3,2.7-3.1,3.2-5.3L912.6,344.8z M906.3,334.3
			c0.3-2.7-0.4-5.2-1.9-7.6c-1.5-2.4-4.1-3.6-7.6-3.6c-3.3,0-5.8,1.1-7.4,3.3c-1.6,2.2-2.5,4.8-2.9,7.9H906.3z M909.6,304.6
			l-13.9,8.4l-1.8-2.5l12.5-10.7L909.6,304.6z"/>
		<path id="XMLID_104_" class="st2" d="M947.8,344.7c0,3.5-1.5,6.3-4.4,8.3c-2.9,2-6.6,3-10.9,3c-2.5,0-5.1-0.3-7.6-1
			c-2.5-0.7-4.5-1.5-6.1-2.5l1.1-8.2l4.5,0.5l-0.2,4.8c2.5,1.2,5.2,1.8,8,1.8c2.5,0,4.8-0.5,6.8-1.5c2-1,3-2.5,3-4.6
			c0-2-0.8-3.4-2.3-4.2c-1.5-0.8-3.4-1.4-5.6-1.8c-2.2-0.4-4.5-0.8-6.8-1.4c-2.3-0.5-4.2-1.5-5.7-2.8c-1.5-1.3-2.3-3.4-2.3-6.2
			c0-3.8,1.4-6.5,4.2-8.1c2.8-1.6,5.9-2.3,9.1-2.3c2.5,0,4.8,0.3,7,1c2.2,0.6,4,1.4,5.5,2.3l0.9,8.4l-4.7,0.6l-0.9-5.8
			c-2.3-1.2-4.7-1.8-7.4-1.8c-2.3,0-4.1,0.4-5.6,1.3c-1.5,0.9-2.2,2.2-2.2,4c0,1.9,0.8,3.2,2.3,4c1.5,0.8,3.4,1.3,5.6,1.7
			c2.2,0.4,4.4,0.8,6.6,1.3c2.2,0.5,4.1,1.5,5.6,2.9C947,339.7,947.8,341.8,947.8,344.7z"/>
	</g>
	<g id="XMLID_16_">
		<g id="XMLID_19_">
			<g id="XMLID_2_">
				<path id="XMLID_24_" class="st1" d="M272.1,144.6c14.9-1.8,24.1-9.4,29.2-18.7c2.9-5.1,4.3-12.4,4.3-22V83.5
					c0-15.8,3.4-28.3,10.3-37.5c6.8-9.2,20.7-14.7,41.5-16.5v14.4c-13.5,1.2-22.7,7.1-27.4,17.9c-2.6,5.9-3.9,14-3.9,24.4v14.1
					c0,12.6-1.6,22.2-4.7,28.9c-5.6,12.2-16.5,19-32.7,20.5"/>
				<path id="XMLID_14_" class="st2" d="M580.2,149.7c-16.1-1.5-27-8.3-32.6-20.4c-3.1-6.7-4.7-16.4-4.7-29.1V86.1
					c0-11.1-1.3-19.4-3.9-25.2c-4.7-10.2-13.8-15.9-27.4-17.1V29.5c21.7,1.8,36.3,8.5,44.1,20.1c5,7.5,7.6,18.7,7.6,33.8V104
					c0,9.4,1.4,16.7,4.3,21.9c5.2,9.5,15.2,17.3,30.1,18.9v6.9"/>
			</g>
		</g>
		<path id="XMLID_6_" d="M326.7,210.8v-19c0-12-1.6-21.5-4.7-28.5c-5.4-12.1-15.6-19-30.5-20.9h-19.5v7c14.8,1.6,24.8,7.2,30,16.9
			c2.9,5.3,4.3,12.5,4.3,21.7v25.9c0,16.6,4.9,28.6,14.7,35.8c9.8,7.3,22.1,11.6,37.1,13.2v-14.7c-7.8-0.9-15-4.1-21.5-9.6
			C330,233,326.7,223.8,326.7,210.8z"/>
		<path id="XMLID_8_" class="st0" d="M578.1,144.6c-14.8,1.9-24.9,8.8-30.4,20.9c-3.1,6.9-4.7,16.4-4.7,28.5v19
			c0,11.7-3,20.5-8.9,26.5c-6,6-13.4,9.6-22.4,10.8v14.7c14.9-1.6,27.2-5.9,37-13c9.8-7.1,14.7-19.1,14.7-36v-25.9
			c0-9,1.4-16.2,4.3-21.5c5.3-9.8,15.3-15.5,30.1-17v-7H578.1z"/>
	</g>
</g>
</svg>
